<svg xmlns="http://www.w3.org/2000/svg" style="display: none;"><symbol id="magnifier-tool" viewBox="0 0 485.213 485.213"><title>magnifier-tool</title><path d="M363.909,181.955C363.909,81.473,282.44,0,181.956,0C81.474,0,0.001,81.473,0.001,181.955s81.473,181.951,181.955,181.951 C282.44,363.906,363.909,282.437,363.909,181.955z M181.956,318.416c-75.252,0-136.465-61.208-136.465-136.46 c0-75.252,61.213-136.465,136.465-136.465c75.25,0,136.468,61.213,136.468,136.465 C318.424,257.208,257.206,318.416,181.956,318.416z"/><path d="M471.882,407.567L360.567,296.243c-16.586,25.795-38.536,47.734-64.331,64.321l111.324,111.324 c17.772,17.768,46.587,17.768,64.321,0C489.654,454.149,489.654,425.334,471.882,407.567z"/></symbol><symbol id="instagram" viewBox="0 0 512.00096 512.00096"><title>instagram</title><path d="m373.40625 0h-234.8125c-76.421875 0-138.59375 62.171875-138.59375 138.59375v234.816406c0 76.417969 62.171875 138.589844 138.59375 138.589844h234.816406c76.417969 0 138.589844-62.171875 138.589844-138.589844v-234.816406c0-76.421875-62.171875-138.59375-138.59375-138.59375zm108.578125 373.410156c0 59.867188-48.707031 108.574219-108.578125 108.574219h-234.8125c-59.871094 0-108.578125-48.707031-108.578125-108.574219v-234.816406c0-59.871094 48.707031-108.578125 108.578125-108.578125h234.816406c59.867188 0 108.574219 48.707031 108.574219 108.578125zm0 0"/><path d="m256 116.003906c-77.195312 0-139.996094 62.800782-139.996094 139.996094s62.800782 139.996094 139.996094 139.996094 139.996094-62.800782 139.996094-139.996094-62.800782-139.996094-139.996094-139.996094zm0 249.976563c-60.640625 0-109.980469-49.335938-109.980469-109.980469 0-60.640625 49.339844-109.980469 109.980469-109.980469 60.644531 0 109.980469 49.339844 109.980469 109.980469 0 60.644531-49.335938 109.980469-109.980469 109.980469zm0 0"/><path d="m399.34375 66.285156c-22.8125 0-41.367188 18.558594-41.367188 41.367188 0 22.8125 18.554688 41.371094 41.367188 41.371094s41.371094-18.558594 41.371094-41.371094-18.558594-41.367188-41.371094-41.367188zm0 52.71875c-6.257812 0-11.351562-5.09375-11.351562-11.351562 0-6.261719 5.09375-11.351563 11.351562-11.351563 6.261719 0 11.355469 5.089844 11.355469 11.351563 0 6.257812-5.09375 11.351562-11.355469 11.351562zm0 0"/></symbol><symbol id="facebook" viewBox="-110 1 511 511.99996"><title>facebook</title><path d="m180 512h-81.992188c-13.695312 0-24.835937-11.140625-24.835937-24.835938v-184.9375h-47.835937c-13.695313 0-24.835938-11.144531-24.835938-24.835937v-79.246094c0-13.695312 11.140625-24.835937 24.835938-24.835937h47.835937v-39.683594c0-39.347656 12.355469-72.824219 35.726563-96.804688 23.476562-24.089843 56.285156-36.820312 94.878906-36.820312l62.53125.101562c13.671875.023438 24.792968 11.164063 24.792968 24.835938v73.578125c0 13.695313-11.136718 24.835937-24.828124 24.835937l-42.101563.015626c-12.839844 0-16.109375 2.574218-16.808594 3.363281-1.152343 1.308593-2.523437 5.007812-2.523437 15.222656v31.351563h58.269531c4.386719 0 8.636719 1.082031 12.289063 3.121093 7.878906 4.402344 12.777343 12.726563 12.777343 21.722657l-.03125 79.246093c0 13.6875-11.140625 24.828125-24.835937 24.828125h-58.46875v184.941406c0 13.695313-11.144532 24.835938-24.839844 24.835938zm-76.8125-30.015625h71.632812v-193.195313c0-9.144531 7.441407-16.582031 16.582032-16.582031h66.726562l.027344-68.882812h-66.757812c-9.140626 0-16.578126-7.4375-16.578126-16.582031v-44.789063c0-11.726563 1.191407-25.0625 10.042969-35.085937 10.695313-12.117188 27.550781-13.515626 39.300781-13.515626l36.921876-.015624v-63.226563l-57.332032-.09375c-62.023437 0-100.566406 39.703125-100.566406 103.609375v53.117188c0 9.140624-7.4375 16.582031-16.578125 16.582031h-56.09375v68.882812h56.09375c9.140625 0 16.578125 7.4375 16.578125 16.582031zm163.0625-451.867187h.003906zm0 0"/></symbol><symbol id="twitter" viewBox="0 -45 512.00013 512"><title>twitter</title><path d="m194.816406 422.710938c-85.453125 0-152.992187-14.929688-185.304687-40.953126l-.628907-.507812-.570312-.570312c-7.675781-7.679688-10.191406-17.753907-6.894531-27.636719l.300781-.820313c4-10.003906 13.800781-16.738281 24.421875-16.800781 21.859375-.378906 40.984375-2.984375 58.339844-8.042969-27.683594-12.875-46.914063-35.167968-58.355469-67.433594-3.847656-10.0625-.527344-21.21875 8.339844-27.871093 2.1875-1.644531 4.660156-2.886719 7.277344-3.71875-15.382813-17.757813-26.746094-37.964844-33.109376-59.335938l-.199218-.664062-.136719-.679688c-2.160156-10.808593 2.671875-21.921875 11.527344-26.707031 3.714843-2.132812 7.75-3.238281 11.800781-3.332031-4.367188-9.40625-7.542969-19.0625-9.425781-28.777344-5.226563-26.921875-.914063-53.910156 12.8125-80.214844l3.175781-6.351562c2.542969-5.082031 7.402344-8.652344 13.003906-9.5625 5.601563-.90625 11.34375.945312 15.355469 4.957031l5.785156 5.792969c45.703125 47.914062 86.640625 70.648437 157.417969 86.203125 3.160156-27.167969 14.90625-52.421875 33.855469-72.296875 22.550781-23.648438 52.664062-36.917969 84.792969-37.371094h.210937c23.441406 0 52.519531 13.382813 70.105469 22.820313 15.085937-4.9375 33.261718-12.582032 52.121094-20.664063 8.824218-4.140625 19.703124-2.2460938 26.640624 4.691406 6.800782 6.800781 8.6875 16.390625 5.078126 25.710938-1.371094 3.816406-2.925782 7.5625-4.65625 11.226562 2.582031 1.183594 4.945312 2.789063 6.941406 4.785157 6.035156 6.035156 8.550781 15.480468 6.40625 24.066406l-.230469.816406c-7.226563 23.289062-21.109375 42.257812-39.46875 54.164062-3.066406 163.285157-126.027344 295.078126-276.730469 295.078126zm-156.511718-57.675782c30.449218 17.226563 88.476562 27.648438 156.511718 27.648438 65.410156 0 127.136719-28.082032 173.804688-79.074219 47.050781-51.410156 72.960937-119.679687 72.960937-192.234375v-.816406c0-6.570313 3.617188-12.566406 9.4375-15.652344 11.808594-6.253906 21.371094-16.90625 27.589844-30.527344-6.414063 1.011719-12.933594-1.5625-16.929687-6.929687-4.644532-6.238281-4.695313-14.664063-.128907-20.957031 2.464844-3.398438 4.699219-6.933594 6.691407-10.589844-16.285157 6.839844-31.75 12.972656-45.175782 17.046875-4.878906 1.476562-10.316406.898437-14.773437-1.589844-23.902344-13.316406-46.164063-21.277344-59.585938-21.316406-49.527343.757812-89.796875 43.175781-89.796875 94.605469 0 5.316406-2.359375 10.300781-6.464844 13.679687-4.109374 3.375-9.453124 4.726563-14.671874 3.695313-81.609376-16.078126-129.96875-40.1875-180.257813-90.722657-7.207031 17.269531-9.175781 34.664063-5.84375 51.839844 3.378906 17.398437 12.367187 34.832031 25.996094 50.414063 5.179687 5.914062 5.867187 14.375 1.710937 21.050781-4.140625 6.652343-12.011718 9.761719-19.578125 7.734375-5.914062-1.585938-11.351562-3.667969-16.507812-6.34375 10.503906 22.816406 28.570312 43.917968 51.28125 59.480468 6.582031 4.511719 9.332031 12.921876 6.691406 20.453126-2.644531 7.542968-10.03125 12.398437-18.015625 11.804687-8.699219-.644531-16.40625-2.296875-23.5-5.082031 12.734375 25.933594 33.082031 40.203125 64.429688 45.65625 7.464843 1.300781 13.277343 7.195312 14.464843 14.667968 1.191407 7.472657-2.507812 14.878907-9.199219 18.429688-26.71875 14.164062-55.921874 21.765625-91.140624 23.628906zm0 0"/></symbol><symbol id="github" viewBox="0 0 512 512"><title>github</title><path d="m256 0c-140.699219 0-256 116.300781-256 257 0 139.882812 114.25 255 256 255 141.574219 0 256-114.945312 256-255 0-140.699219-115.300781-257-256-257zm45 477.5c-14.398438 3-29.699219 4.5-45 4.5s-30.601562-1.5-45-4.5v-70.199219c0-16.800781 4.5-22.800781 10.5-30.902343 3.054688-3.492188 4.898438-6.625 18.597656-27.296876l-23.097656-3.601562c-59.402344-8.699219-82.800781-39.601562-92.101562-63.601562-12-32.097657-5.699219-72.300782 15.902343-97.796876 3.300781-3.902343 6-10.503906 3.601563-17.402343-4.503906-13.800781-3.902344-35.699219-.902344-44.101563 15.90625 2.273438 32.261719 13.667969 45.902344 21.902344 6.285156 3.667969 9.582031 2.699219 12.597656 3 10.960938-2.28125 28.058594-7.800781 54.300781-7.800781 16.199219 0 33.300781 2.398437 50.101563 7.199219 3.003906-.070313 7.832031 2.484374 16.199218-2.398438 14.257813-8.6875 30.058594-19.691406 45.898438-21.902344 3 8.402344 3.601562 30.300782-.898438 44.101563-2.402343 6.898437.296876 13.5 3.601563 17.402343 21.597656 25.5 27.898437 65.699219 15.898437 97.796876-9.300781 24-32.699218 54.902343-92.101562 63.601562l-23.097656 3.601562c14.160156 21.367188 15.652344 23.929688 18.601562 27.296876 5.996094 8.101562 10.496094 14.101562 10.496094 30.902343zm30-8.699219v-61.5c0-17.101562-3.601562-28.5-8.402344-36.902343 45.601563-12.296876 78.003906-39.300782 92.402344-78 15.300781-40.796876 8.402344-89.398438-17.101562-123 4.503906-20.097657 4.503906-52.199219-6.296876-67.199219-4.800781-6.597657-11.402343-10.199219-19.800781-10.199219-.300781 0-.300781 0-.300781 0-23.261719 1.257812-41.570312 12.972656-61.199219 24.898438-18-4.800782-36.300781-7.199219-54.601562-7.199219-18.597657 0-37.199219 2.699219-53.695313 7.199219-20.664062-12.460938-38.796875-23.671876-62.703125-24.898438-7.5 0-14.101562 3.601562-18.902343 10.199219-10.796876 15-10.796876 47.101562-6.296876 67.199219-25.503906 33.601562-32.402343 82.5-17.101562 123 14.398438 38.699218 46.800781 65.703124 92.402344 78-3.722656 6.511718-6.667969 14.914062-7.828125 26.285156-9.210938 3.175781-17.199219 4.210937-24.628907 2.027344-7.835937-2.316407-13.941406-7.546876-19.246093-16.46875-11.914063-20.015626-32.207031-36.355469-55.3125-34.230469l2.636719 29.882812c10.699218-.980469 21.347656 10.339844 26.878906 19.671875 9.125 15.367188 21.417968 25.445313 36.546875 29.914063 11.230469 3.308593 21.496093 3.230469 32.550781.871093v40.449219c-87.300781-30.601562-151-114-151-211.800781 0-124.199219 101.800781-227 226-227s226 102.800781 226 227c0 97.800781-63.699219 181.199219-151 211.800781zm0 0"/></symbol><symbol id="calendar" viewBox="0 0 512 512"><title>calendar</title><g> <g> <path d="M452,40h-24V0h-40v40H124V0H84v40H60C26.916,40,0,66.916,0,100v352c0,33.084,26.916,60,60,60h392 c33.084,0,60-26.916,60-60V100C512,66.916,485.084,40,452,40z M472,452c0,11.028-8.972,20-20,20H60c-11.028,0-20-8.972-20-20V188 h432V452z M472,148H40v-48c0-11.028,8.972-20,20-20h24v40h40V80h264v40h40V80h24c11.028,0,20,8.972,20,20V148z"/> </g> </g><g> <g> <rect x="76" y="230" width="40" height="40"/> </g> </g><g> <g> <rect x="156" y="230" width="40" height="40"/> </g> </g><g> <g> <rect x="236" y="230" width="40" height="40"/> </g> </g><g> <g> <rect x="316" y="230" width="40" height="40"/> </g> </g><g> <g> <rect x="396" y="230" width="40" height="40"/> </g> </g><g> <g> <rect x="76" y="310" width="40" height="40"/> </g> </g><g> <g> <rect x="156" y="310" width="40" height="40"/> </g> </g><g> <g> <rect x="236" y="310" width="40" height="40"/> </g> </g><g> <g> <rect x="316" y="310" width="40" height="40"/> </g> </g><g> <g> <rect x="76" y="390" width="40" height="40"/> </g> </g><g> <g> <rect x="156" y="390" width="40" height="40"/> </g> </g><g> <g> <rect x="236" y="390" width="40" height="40"/> </g> </g><g> <g> <rect x="316" y="390" width="40" height="40"/> </g> </g><g> <g> <rect x="396" y="310" width="40" height="40"/> </g> </g></symbol><symbol id="comments" viewBox="0 0 511.62 511.619"><title>comments</title><path d="M301.923,327.602c30.93-13.038,55.34-30.785,73.228-53.248c17.891-22.458,26.837-46.915,26.837-73.372 c0-26.458-8.946-50.914-26.837-73.376c-17.888-22.459-42.298-40.208-73.228-53.249c-30.93-13.039-64.571-19.556-100.928-19.556 c-36.354,0-69.995,6.521-100.927,19.56C69.14,87.4,44.729,105.149,26.84,127.609C8.947,150.068,0,174.523,0,200.982 c0,22.648,6.764,43.975,20.276,63.957c13.512,19.985,32.071,36.833,55.671,50.535c-1.902,4.572-3.853,8.754-5.852,12.566 c-2,3.806-4.377,7.467-7.139,10.991c-2.76,3.525-4.899,6.283-6.423,8.275c-1.523,1.998-3.997,4.809-7.424,8.422 c-3.428,3.617-5.618,5.996-6.567,7.135c0-0.191-0.383,0.24-1.143,1.287c-0.763,1.047-1.191,1.52-1.287,1.431 c-0.094-0.103-0.476,0.373-1.141,1.42c-0.666,1.048-1,1.571-1,1.571l-0.715,1.423c-0.284,0.568-0.476,1.137-0.57,1.712 c-0.096,0.567-0.144,1.19-0.144,1.854s0.094,1.28,0.286,1.854c0.383,2.471,1.477,4.466,3.284,5.996 c1.809,1.52,3.757,2.279,5.854,2.279h0.857c9.515-1.332,17.701-2.854,24.552-4.569c29.312-7.614,55.771-19.797,79.372-36.545 c17.128,3.046,33.88,4.568,50.248,4.568C237.349,347.156,270.994,340.641,301.923,327.602z M142.184,303.767l-12.564,8.846 c-5.33,3.614-11.227,7.331-17.7,11.14l9.995-23.986l-27.694-15.988c-18.276-10.656-32.454-23.219-42.542-37.685 c-10.089-14.465-15.131-29.502-15.131-45.111c0-19.417,7.474-37.594,22.414-54.534c14.938-16.94,35.067-30.358,60.382-40.259 c25.313-9.895,52.532-14.847,81.653-14.847c29.121,0,56.342,4.952,81.654,14.847c25.313,9.9,45.442,23.319,60.388,40.259 c14.94,16.939,22.408,35.116,22.408,54.534c0,19.414-7.468,37.59-22.408,54.53c-14.945,16.945-35.074,30.36-60.388,40.256 c-25.312,9.897-52.53,14.846-81.654,14.846c-14.272,0-28.833-1.335-43.681-3.997L142.184,303.767z"/><path d="M491.347,338.156c13.518-19.896,20.272-41.255,20.272-64.098c0-23.411-7.139-45.303-21.409-65.666 c-14.277-20.362-33.694-37.305-58.245-50.819c4.374,14.274,6.563,28.739,6.563,43.398c0,25.503-6.368,49.676-19.129,72.519 c-12.752,22.836-31.025,43.01-54.816,60.524c-22.08,15.988-47.205,28.261-75.377,36.829 c-28.164,8.562-57.573,12.848-88.218,12.848c-5.708,0-14.084-0.377-25.122-1.137c38.256,25.119,83.177,37.685,134.756,37.685 c16.371,0,33.119-1.526,50.251-4.571c23.6,16.755,50.06,28.931,79.37,36.549c6.852,1.718,15.037,3.237,24.554,4.568 c2.283,0.195,4.381-0.476,6.283-1.995c1.903-1.526,3.142-3.614,3.71-6.276c-0.089-1.143,0-1.77,0.287-1.861 c0.281-0.09,0.233-0.712-0.144-1.852c-0.376-1.144-0.568-1.715-0.568-1.715l-0.712-1.424c-0.198-0.376-0.52-0.903-0.999-1.567 c-0.476-0.66-0.855-1.14-1.143-1.427c-0.28-0.284-0.705-0.763-1.28-1.424c-0.568-0.66-0.951-1.092-1.143-1.283 c-0.951-1.143-3.139-3.521-6.564-7.139c-3.429-3.613-5.899-6.42-7.422-8.418c-1.523-1.999-3.665-4.757-6.424-8.282 c-2.758-3.518-5.14-7.183-7.139-10.991c-1.998-3.806-3.949-7.995-5.852-12.56C459.281,374.855,477.843,358.059,491.347,338.156z"/></symbol><symbol id="heart" viewBox="0 0 426.668 426.668"><title>heart</title><path style="fill:#F05228;" d="M401.788,74.476c-63.492-82.432-188.446-33.792-188.446,49.92 c0-83.712-124.962-132.356-188.463-49.92c-65.63,85.222-0.943,234.509,188.459,320.265 C402.731,308.985,467.418,159.698,401.788,74.476z"/></symbol></svg>