<svg xmlns="http://www.w3.org/2000/svg" style="display: none;"><symbol id="messenger" viewBox="0 0 512.05 512.05"><title>messenger</title><path style="fill:#2196F3;" d="M256.025,0.05C117.67-2.678,3.184,107.038,0.025,245.383c0.361,70.423,31.544,137.157,85.333,182.613 v73.387c0,5.891,4.776,10.667,10.667,10.667c1.999,0,3.958-0.562,5.653-1.621l59.456-37.141 c30.292,11.586,62.459,17.494,94.891,17.429c138.355,2.728,252.841-106.988,256-245.333C508.866,107.038,394.38-2.678,256.025,0.05z "/><path style="fill:#FAFAFA;" d="M424.558,174.983c-3.174-4.254-8.993-5.527-13.653-2.987l-110.933,60.48l-69.013-59.179 c-4.232-3.628-10.544-3.387-14.485,0.555l-128,128c-4.153,4.178-4.133,10.932,0.046,15.085c3.341,3.321,8.464,4.057,12.605,1.811 l110.933-60.48l69.077,59.2c4.232,3.628,10.544,3.387,14.485-0.555l128-128C427.35,185.148,427.75,179.215,424.558,174.983z"/></symbol><symbol id="rss-symbol" viewBox="0 0 430.117 430.118"><title>rss-symbol</title><path id="RSS" d="M97.493,332.473c10.419,10.408,16.755,24.525,16.794,40.244c-0.04,15.687-6.375,29.809-16.755,40.17l-0.04,0.019 c-10.398,10.352-24.603,16.681-40.398,16.681c-15.775,0-29.944-6.348-40.34-16.699C6.384,402.526,0,388.422,0,372.717 c0-15.719,6.384-29.869,16.754-40.253v0.009c10.401-10.36,24.57-16.735,40.34-16.735C72.89,315.738,87.081,322.131,97.493,332.473z M97.493,332.464v0.009c0.019,0,0.019,0,0.019,0L97.493,332.464z M16.754,412.906c0,0,0,0,0-0.019c-0.019,0-0.019,0-0.019,0 L16.754,412.906z M0.046,146.259v82.129c53.618,0.033,104.328,21.096,142.278,59.104c37.943,37.888,58.917,88.675,59.003,142.477 h0.028v0.149h82.467c-0.065-78.233-31.866-149.099-83.279-200.549C149.122,178.126,78.285,146.308,0.046,146.259z M0.196,0v82.089 c191.661,0.14,347.464,156.184,347.594,348.028h82.327c-0.056-118.571-48.248-225.994-126.132-303.932 C226.073,48.274,118.721,0.051,0.196,0z"/></symbol><symbol id="more" viewBox="0 0 426.667 426.667"><title>more</title><g> <g> <circle cx="42.667" cy="213.333" r="42.667"/> </g> </g><g> <g> <circle cx="213.333" cy="213.333" r="42.667"/> </g> </g><g> <g> <circle cx="384" cy="213.333" r="42.667"/> </g> </g></symbol><symbol id="open-folder" viewBox="0 0 536.461 536.46"><title>open-folder</title><path d="M144.752,263.52c19.603-9.038,38.354-13.559,56.243-13.559h237.548v-45.683c0-17.511-6.283-32.555-18.85-45.118 c-12.565-12.562-27.596-18.842-45.11-18.842H219.266v-9.136c0-17.511-6.28-32.548-18.842-45.107 c-12.563-12.562-27.6-18.846-45.111-18.846h-91.36c-17.511,0-32.548,6.283-45.111,18.846C6.279,98.635,0,113.672,0,131.183 v274.084c0,0.764,0.049,1.955,0.144,3.576c0.094,1.615,0.144,2.807,0.144,3.566l1.426-1.704L97.93,297.637 C109.54,283.931,125.148,272.556,144.752,263.52z"/><path d="M528.898,290.214c-5.041-2.478-10.797-3.72-17.272-3.72H200.995c-12.562,0-26.219,3.381-40.968,10.14 c-14.75,6.766-26.219,14.986-34.401,24.701l-95.93,113.059c-5.902,6.662-8.853,12.945-8.853,18.849 c0,5.708,2.523,9.802,7.566,12.272c5.043,2.478,10.8,3.716,17.273,3.716h310.64c12.56,0,26.21-3.381,40.963-10.136 c14.75-6.756,26.214-14.989,34.399-24.701l95.931-113.059c5.899-6.663,8.846-12.939,8.846-18.849 C536.465,296.779,533.946,292.689,528.898,290.214z"/></symbol><symbol id="home" viewBox="0 0 460.298 460.297"><title>home</title><path d="M230.149,120.939L65.986,256.274c0,0.191-0.048,0.472-0.144,0.855c-0.094,0.38-0.144,0.656-0.144,0.852v137.041 c0,4.948,1.809,9.236,5.426,12.847c3.616,3.613,7.898,5.431,12.847,5.431h109.63V303.664h73.097v109.64h109.629 c4.948,0,9.236-1.814,12.847-5.435c3.617-3.607,5.432-7.898,5.432-12.847V257.981c0-0.76-0.104-1.334-0.288-1.707L230.149,120.939 z"/><path d="M457.122,225.438L394.6,173.476V56.989c0-2.663-0.856-4.853-2.574-6.567c-1.704-1.712-3.894-2.568-6.563-2.568h-54.816 c-2.666,0-4.855,0.856-6.57,2.568c-1.711,1.714-2.566,3.905-2.566,6.567v55.673l-69.662-58.245 c-6.084-4.949-13.318-7.423-21.694-7.423c-8.375,0-15.608,2.474-21.698,7.423L3.172,225.438c-1.903,1.52-2.946,3.566-3.14,6.136 c-0.193,2.568,0.472,4.811,1.997,6.713l17.701,21.128c1.525,1.712,3.521,2.759,5.996,3.142c2.285,0.192,4.57-0.476,6.855-1.998 L230.149,95.817l197.57,164.741c1.526,1.328,3.521,1.991,5.996,1.991h0.858c2.471-0.376,4.463-1.43,5.996-3.138l17.703-21.125 c1.522-1.906,2.189-4.145,1.991-6.716C460.068,229.007,459.021,226.961,457.122,225.438z"/></symbol><symbol id="share-symbol" viewBox="0 0 475.082 475.081"><title>share-symbol</title><path d="M469.658,133.333L360.029,23.697c-3.621-3.617-7.909-5.424-12.854-5.424c-2.275,0-4.661,0.476-7.132,1.425 c-7.426,3.237-11.139,8.852-11.139,16.846v54.821h-45.683c-20.174,0-38.879,1.047-56.101,3.14 c-17.224,2.092-32.404,4.993-45.537,8.708c-13.134,3.708-24.983,8.326-35.547,13.846c-10.562,5.518-19.555,11.372-26.98,17.559 c-7.426,6.186-13.943,13.23-19.558,21.129c-5.618,7.898-10.088,15.653-13.422,23.267c-3.328,7.616-5.992,15.99-7.992,25.125 c-2.002,9.137-3.333,17.701-3.999,25.693c-0.666,7.994-0.999,16.657-0.999,25.979c0,10.663,1.668,22.271,4.998,34.838 c3.331,12.559,6.995,23.407,10.992,32.545c3.996,9.13,8.709,18.603,14.134,28.403c5.424,9.802,9.182,16.317,11.276,19.555 c2.093,3.23,4.095,6.187,5.997,8.85c1.903,2.474,4.377,3.71,7.421,3.71c0.765,0,1.902-0.186,3.427-0.568 c4.377-2.095,6.279-5.325,5.708-9.705c-8.564-63.954-1.52-108.973,21.128-135.047c21.892-24.934,63.575-37.403,125.051-37.403 h45.686v54.816c0,8.001,3.71,13.613,11.136,16.851c2.471,0.951,4.853,1.424,7.132,1.424c5.14,0,9.425-1.807,12.854-5.421 l109.633-109.637c3.613-3.619,5.424-7.898,5.424-12.847C475.082,141.23,473.271,136.944,469.658,133.333z"/><path d="M395.996,292.356c-3.625-1.529-6.951-0.763-9.993,2.283c-4.948,4.568-10.092,8.093-15.42,10.564 c-3.433,1.902-5.141,4.66-5.141,8.277v61.104c0,12.562-4.466,23.308-13.415,32.26c-8.945,8.946-19.704,13.419-32.264,13.419 H82.222c-12.564,0-23.318-4.473-32.264-13.419c-8.947-8.952-13.418-19.697-13.418-32.26V137.039 c0-12.563,4.471-23.313,13.418-32.259c8.945-8.947,19.699-13.418,32.264-13.418h31.977c1.141,0,2.666-0.383,4.568-1.143 c10.66-6.473,23.313-12.185,37.972-17.133c4.949-0.95,7.423-3.994,7.423-9.136c0-2.474-0.903-4.611-2.712-6.423 c-1.809-1.804-3.946-2.708-6.423-2.708H82.226c-22.65,0-42.018,8.042-58.102,24.125C8.042,95.026,0,114.394,0,137.044v237.537 c0,22.651,8.042,42.018,24.125,58.102c16.084,16.084,35.452,24.126,58.102,24.126h237.541c22.647,0,42.017-8.042,58.101-24.126 c16.085-16.084,24.127-35.45,24.127-58.102v-73.946C401.995,296.829,399.996,294.071,395.996,292.356z"/></symbol><symbol id="blogger-letter-logotype" viewBox="0 0 430.117 430.118"><title>blogger-letter-logotype</title><path id="Blogger" d="M292.938,430.118c74.995,0,135.91-61.092,136.335-135.672l0.844-109.816l-1.269-5.974l-3.604-7.516 l-6.091-4.711c-7.915-6.21-48.015,0.42-58.81-9.388c-7.663-6.996-8.858-19.637-11.173-36.77 c-4.308-33.18-7.028-34.912-12.228-46.162C318.07,34.166,266.84,4.149,231.646,0h-95.332C61.316,0,0,61.181,0,135.908v158.538 c0,74.58,61.316,135.672,136.313,135.672H292.938z M138.05,111.032h75.581c14.431,0,26.117,11.714,26.117,25.951 c0,14.179-11.687,25.989-26.117,25.989H138.05c-14.433,0-26.096-11.815-26.096-25.989 C111.954,122.747,123.617,111.032,138.05,111.032z M111.954,292.439c0-14.234,11.663-25.86,26.096-25.86h153.577 c14.337,0,25.977,11.626,25.977,25.86c0,14.043-11.64,25.855-25.977,25.855H138.05 C123.617,318.294,111.954,306.482,111.954,292.439z"/></symbol><symbol id="musica-searcher" viewBox="0 0 250.313 250.313"><title>musica-searcher</title><path style="fill-rule:evenodd;clip-rule:evenodd;" d="M244.186,214.604l-54.379-54.378c-0.289-0.289-0.628-0.491-0.93-0.76 c10.7-16.231,16.945-35.66,16.945-56.554C205.822,46.075,159.747,0,102.911,0S0,46.075,0,102.911 c0,56.835,46.074,102.911,102.91,102.911c20.895,0,40.323-6.245,56.554-16.945c0.269,0.301,0.47,0.64,0.759,0.929l54.38,54.38 c8.169,8.168,21.413,8.168,29.583,0C252.354,236.017,252.354,222.773,244.186,214.604z M102.911,170.146 c-37.134,0-67.236-30.102-67.236-67.235c0-37.134,30.103-67.236,67.236-67.236c37.132,0,67.235,30.103,67.235,67.236 C170.146,140.044,140.043,170.146,102.911,170.146z"/></symbol><symbol id="frame-landscape" viewBox="0 0 315.58 315.58"><title>frame-landscape</title><path d="M310.58,33.331H5c-2.761,0-5,2.238-5,5v238.918c0,2.762,2.239,5,5,5h305.58c2.763,0,5-2.238,5-5V38.331 C315.58,35.569,313.343,33.331,310.58,33.331z M285.58,242.386l-68.766-71.214c-0.76-0.785-2.003-0.836-2.823-0.114l-47.695,41.979 l-60.962-75.061c-0.396-0.49-0.975-0.77-1.63-0.756c-0.631,0.013-1.22,0.316-1.597,0.822L30,234.797V63.331h255.58V242.386z"/><path d="M210.059,135.555c13.538,0,24.529-10.982,24.529-24.531c0-13.545-10.991-24.533-24.529-24.533 c-13.549,0-24.528,10.988-24.528,24.533C185.531,124.572,196.511,135.555,210.059,135.555z"/></symbol><symbol id="unlink" viewBox="0 0 52.965 52.965"><title>unlink</title><path style="fill:none;stroke:#EA6248;stroke-width:2;stroke-linecap:round;stroke-miterlimit:10;" d="M24.008,13.401L33.2,4.208 c4.278-4.278,11.278-4.278,15.556,0l0,0c4.278,4.278,4.278,11.278,0,15.556L36.735,31.786c-4.278,4.278-11.278,4.278-15.556,0l0,0"/><path style="fill:none;stroke:#EA6248;stroke-width:2;stroke-linecap:round;stroke-miterlimit:10;" d="M27.543,40.978l-7.778,7.778 c-4.278,4.278-11.278,4.278-15.556,0l0,0c-4.278-4.278-4.278-11.278,0-15.556l11.314-11.314c4.278-4.278,11.278-4.278,15.556,0l0,0"/></symbol><symbol id="google-plus" viewBox="0 0 458.246 458.246"><title>google-plus</title><path style="fill:#F34A38;" d="M160.777,259.368h71.594c-12.567,35.53-46.603,61.004-86.45,60.71 c-48.349-0.357-88.327-39.035-90.204-87.349c-2.012-51.789,39.537-94.563,90.887-94.563c23.479,0,44.905,8.946,61.058,23.605 c3.826,3.473,9.65,3.495,13.413-0.047l26.296-24.749c4.112-3.871,4.127-10.408,0.027-14.292 c-25.617-24.269-59.981-39.396-97.876-40.136C68.696,80.969,0.567,147.238,0.004,228.078 c-0.568,81.447,65.285,147.649,146.6,147.649c78.199,0,142.081-61.229,146.36-138.358c0.114-0.967,0.189-33.648,0.189-33.648 H160.777c-5.426,0-9.824,4.398-9.824,9.824v35.999C150.953,254.97,155.352,259.368,160.777,259.368z"/><path style="fill:#F34A38;" d="M414.464,206.99v-35.173c0-4.755-3.854-8.609-8.609-8.609h-29.604c-4.755,0-8.609,3.854-8.609,8.609 v35.173h-35.173c-4.755,0-8.609,3.854-8.609,8.609v29.604c0,4.755,3.854,8.609,8.609,8.609h35.173v35.173 c0,4.755,3.854,8.609,8.609,8.609h29.604c4.755,0,8.609-3.854,8.609-8.609v-35.173h35.173c4.755,0,8.609-3.854,8.609-8.609v-29.604 c0-4.755-3.854-8.609-8.609-8.609L414.464,206.99L414.464,206.99z"/></symbol><symbol id="paypal" viewBox="0 0 512 512"><title>paypal</title><path style="fill:#002987;" d="M428.876,132.28c0.867-7.045,1.32-14.218,1.32-21.497C430.196,49.6,380.597,0,319.413,0H134.271 c-11.646,0-21.589,8.41-23.521,19.894l-68.22,405.475c-2.448,14.55,8.768,27.809,23.521,27.809h67.711 c11.646,0,21.776-8.404,23.707-19.889c0,0,0.113-0.673,0.317-1.885h0.001l-9.436,56.086C146.195,500.313,156.08,512,169.083,512 h59.237c10.265,0,19.029-7.413,20.731-17.535l16.829-100.02c2.901-17.242,17.828-29.867,35.311-29.867h15.562 c84.53,0,153.054-68.525,153.054-153.054C469.807,178.815,453.639,149.902,428.876,132.28z"/><path style="fill:#0085CC;" d="M428.876,132.28c-10.594,86.179-84.044,152.91-173.086,152.91h-51.665 c-11.661,0-21.732,7.767-24.891,18.749l-30.882,183.549C146.195,500.312,156.08,512,169.083,512h59.237 c10.265,0,19.029-7.413,20.731-17.535l16.829-100.02c2.901-17.242,17.828-29.867,35.311-29.867h15.562 c84.53,0,153.054-68.525,153.054-153.054l0,0C469.807,178.815,453.639,149.902,428.876,132.28z"/><path style="fill:#00186A;" d="M204.125,285.19h51.665c89.043,0,162.493-66.731,173.086-152.909 c-15.888-11.306-35.304-17.978-56.29-17.978h-134.85c-15.353,0-28.462,11.087-31.01,26.227l-27.493,163.408 C182.392,292.956,192.464,285.19,204.125,285.19z"/></symbol><symbol id="youtube" viewBox="0 0 461.001 461.001"><title>youtube</title><path style="fill:#F61C0D;" d="M365.257,67.393H95.744C42.866,67.393,0,110.259,0,163.137v134.728 c0,52.878,42.866,95.744,95.744,95.744h269.513c52.878,0,95.744-42.866,95.744-95.744V163.137 C461.001,110.259,418.135,67.393,365.257,67.393z M300.506,237.056l-126.06,60.123c-3.359,1.602-7.239-0.847-7.239-4.568V168.607 c0-3.774,3.982-6.22,7.348-4.514l126.06,63.881C304.363,229.873,304.298,235.248,300.506,237.056z"/></symbol><symbol id="chrome" viewBox="0 0 291.364 291.364"><title>chrome</title><path style="fill:#26A6D1;" d="M145.683,90.937c30.17,0,54.622,24.471,54.622,54.622c0,30.179-24.453,54.622-54.622,54.622 c-30.152,0-54.622-24.453-54.622-54.622C91.061,115.408,115.532,90.937,145.683,90.937z"/><path style="fill:#3DB39E;" d="M145.683,218.398c-36.852,0-67.231-27.384-72.074-62.925L23.402,68.414l-0.055-0.127l-5.617,8.111 c-1.384,2.54-2.731,5.116-3.969,7.747l-2.686,6.282c-0.892,2.167-1.775,4.361-2.567,6.6c-0.892,2.485-1.666,4.998-2.403,7.52 l-1.62,5.799c-0.674,2.704-1.247,5.408-1.766,8.13l-0.983,5.744c-0.401,2.667-0.71,5.317-0.947,7.966l-0.473,6.345 c-0.118,2.422-0.164,4.834-0.164,7.256s0.036,4.843,0.164,7.256l0.473,6.345c0.246,2.649,0.564,5.317,0.947,7.966l0.983,5.744 c0.528,2.722,1.092,5.426,1.766,8.13l1.62,5.799c0.747,2.504,1.511,5.034,2.403,7.52c0.792,2.221,1.684,4.406,2.567,6.6 c0.874,2.094,1.711,4.197,2.686,6.272c1.238,2.631,2.585,5.189,3.978,7.756l1.812,3.56l0.838,1.302 c1.602,2.74,3.368,5.353,5.153,7.966l2.859,4.251c1.721,2.349,3.605,4.588,5.49,6.846l3.769,4.515 c1.639,1.793,3.396,3.505,5.125,5.226c1.73,1.739,3.432,3.523,5.235,5.134l4.515,3.787c2.258,1.866,4.497,3.751,6.846,5.48 l4.215,2.877c2.622,1.793,5.253,3.56,7.966,5.153l1.293,0.838l3.55,1.812c2.549,1.384,5.116,2.758,7.747,3.987l0.756,0.391 l3.687,1.511c9.85,4.197,20.137,7.165,30.625,9.122l41.558-72.065C155.907,217.843,150.863,218.398,145.683,218.398z"/><path style="fill:#EFC75E;" d="M290.851,135.636l-0.191-2.403c-1.029-12.163-6.027-29.769-10.178-41.586h-85.966 c14.702,13.319,23.997,32.5,23.997,53.912c0,23.105-10.788,43.652-27.539,56.989l-51.208,88.816c18.007,0,42.25-3.25,59.693-10.223 l0.592-0.191l0.929-0.391c5.945-2.467,11.826-5.171,17.552-8.485c5.125-2.95,9.923-6.263,14.557-9.723l0.264-0.209 c4.461-3.378,8.639-6.973,12.627-10.761l0.619-0.537l2.012-2.048c8.812-8.822,16.378-18.562,22.55-29.068l0.701-1.029l1.265-2.558 c1.985-3.605,3.824-7.292,5.499-11.043l2.148-5.053c1.42-3.56,2.658-7.165,3.796-10.815l1.502-4.698 c1.393-5.071,2.531-10.187,3.378-15.367l0.355-2.95c0.628-4.443,1.074-8.913,1.302-13.428l0.082-3.614 C291.261,144.676,291.17,140.152,290.851,135.636z"/><path style="fill:#E2574C;" d="M271.779,72.73c-3.05-5.28-6.464-10.205-10.051-14.957l-1.174-1.457 c-3.223-4.16-6.637-8.111-10.242-11.826l-2.44-2.504c-3.96-3.896-8.066-7.593-12.372-10.97l-0.947-0.801 c-4.798-3.696-9.823-7.019-15.003-10.06l-1.038-0.692l-3.942-2.048c-2.276-1.229-4.543-2.458-6.882-3.56 c-2.249-1.047-4.515-1.976-6.782-2.913l-5.708-2.276c-2.758-0.992-5.544-1.83-8.339-2.686l-4.643-1.347 c-3.041-0.783-6.109-1.402-9.167-1.994l-4.333-0.856c-2.986-0.482-5.972-0.783-8.967-1.065l-4.907-0.501 c-2.567-0.164-5.125-0.146-7.711-0.182L140.813,0l-4.916,0.355c-10.87,0.728-21.74,2.667-32.418,5.899l-2.212,0.601 c-2.704,0.874-5.371,1.939-8.048,2.986l-5.134,2.03c-2.203,0.938-4.379,2.039-6.564,3.123c-2.112,1.038-4.233,2.085-6.309,3.241 l-2.367,1.211l-3.496,2.258c-2.067,1.275-4.115,2.576-6.127,3.96c-1.966,1.375-3.905,2.777-5.799,4.215l-5.007,3.997 c-2.067,1.73-4.078,3.487-6.036,5.307l-3.714,3.623c-2.158,2.167-4.27,4.37-6.263,6.646l-1.356,1.639l41.431,71.874 c9.513-29.141,36.888-50.234,69.216-50.234C145.692,72.73,271.779,72.73,271.779,72.73z"/></symbol><symbol id="edge" viewBox="0 0 272.603 272.603"><title>edge</title><path style="fill:#26A6D1;" d="M107.623,67.226c-10.924,11.835-16.387,26.401-18.207,41.877c32.773,0,64.636,0,96.499,0 c0-2.731,0-4.552,0-7.283c-0.91-10.014-2.731-20.028-8.193-29.132c-7.283-11.835-19.118-18.207-32.773-20.028 c-20.028-3.641-39.146,0-57.353,7.283c-27.311,10.014-50.07,26.401-68.278,48.25c-2.731,3.641-5.462,8.193-9.104,12.745 c0-2.731,0-3.641,0.91-5.462c3.641-25.49,12.745-50.07,30.042-70.099C61.195,21.708,86.685,7.142,117.638,1.68 c30.042-4.552,58.264,0,84.665,15.476c24.58,13.656,40.967,34.594,50.981,60.995c5.462,14.566,8.193,30.953,9.104,46.429 c0,10.014,0,20.028,0,30.042c0,0.91,0,1.821,0,3.641c-57.353,0-113.796,0-171.15,0c0,13.656,4.552,26.401,13.656,36.415 c10.924,11.835,25.49,17.297,40.056,20.028c32.773,4.552,62.816-0.91,91.037-17.297c0.91,0,1.821-0.91,1.821-0.91s0,0,0.91,0 c0,0.91,0,1.821,0,2.731c0,17.297,0,34.594,0,51.891c0,1.821-0.91,2.731-2.731,3.641c-20.028,10.014-41.877,16.387-64.636,17.297 c-14.566,0.91-29.132,0.91-42.787-1.821c-42.787-9.104-77.382-40.056-85.575-84.665c-9.104-50.981,15.476-97.41,63.726-118.348 C106.713,67.226,106.713,67.226,107.623,67.226z"/></symbol><symbol id="firefox" viewBox="0 0 291.678 291.678"><title>firefox</title><path style="fill:#2394BC;" d="M145.66,4.277c75.561,0,136.556,60.995,136.556,136.556S221.22,277.389,145.66,277.389 S9.104,216.394,9.104,140.833S70.099,4.277,145.66,4.277z"/><path style="fill:#EC8840;" d="M169.329,284.671c69.188-11.835,121.99-71.009,121.99-143.839l-0.91,1.821 c1.821-13.656,1.821-26.401-0.91-36.415c-0.91,8.193-1.821,12.745-3.642,14.566c0-0.91,0-9.104-2.731-20.028 c-0.91-8.193-2.731-16.387-5.462-23.67c0.91,3.641,0.91,6.373,0.91,9.104c-10.924-28.222-36.415-63.726-101.051-62.816 c0,0,22.759,2.731,32.773,18.207c0,0-10.924-2.731-19.118,1.821c10.014,3.641,19.118,8.193,26.401,12.745h0.91 c1.821,0.91,3.641,2.731,5.462,3.641c13.656,10.014,26.401,23.67,25.49,40.967c-3.641-5.462-7.283-9.104-12.745-10.014 c6.373,24.58,6.373,44.608,1.821,60.085c-3.641-10.924-6.373-16.387-9.104-19.118c3.641,32.773-0.91,56.443-15.476,71.919 c2.731-9.104,3.641-17.297,3.641-23.67c-17.297,25.49-36.415,39.146-58.264,40.056c-8.193,0-16.387-0.91-24.58-3.641 c-10.924-3.641-20.939-10.014-30.042-19.118c13.656,0.91,27.311-0.91,38.236-7.283l18.207-11.835l0,0 c2.731-0.91,4.552-0.91,7.283,0c4.552-0.91,6.373-2.731,4.552-7.283c-1.821-2.731-5.462-5.462-10.014-8.193 c-9.104-4.552-19.118-3.641-29.132,2.731c-10.014,5.462-19.118,5.462-28.222-0.91c-5.462-3.641-11.835-9.104-17.297-16.387 l-1.821-3.641c-0.91,8.193,0,17.297,3.641,30.042l0,0l0,0c-3.641-11.835-4.552-21.849-3.641-30.042l0,0 c0-6.373,2.731-10.924,8.193-10.924h-1.821h2.731c6.373,0.91,12.745,1.821,20.939,4.552c0.91-7.283,0-15.476-5.462-23.67l0,0 c7.283-7.283,13.656-11.835,19.118-14.566c2.731-0.91,3.641-3.641,4.552-6.373l0,0l0,0l0,0c1.821-3.641,0.91-5.462-0.91-7.283 c-5.462,0-10.014,0-15.476-0.91l0,0c-1.821-0.91-4.552-2.731-8.193-5.462l-8.193-8.193l-2.731-1.821l0,0l0,0l0,0l-0.91-0.91 l0.91-0.91c0.91-6.373,2.731-11.835,5.462-16.387l0.91-0.91c2.731-4.552,8.193-9.104,15.476-14.566 c-14.566,1.821-27.311,8.193-39.146,19.118c-9.104-2.731-20.939-1.821-33.684,3.641l-1.821,0.91l0,0l1.821-0.91l0,0 c-8.193-3.641-13.656-14.566-16.387-32.773C20.939,36.14,16.387,55.258,16.387,81.659l-2.731,4.552l-0.91,0.91l0,0l0,0l0,0 c-1.821,2.731-3.641,6.373-6.373,10.924c-3.641,7.283-5.462,12.745-5.462,18.207l0,0l0,0v1.821l0,0c0,0.91,0,2.731,0,3.641 l8.193-6.373c-2.731,8.193-5.462,16.387-6.373,24.58v3.641L0,140.833c0,30.953,10.014,60.085,26.401,83.754l0.91,0.91l0.91,0.91 c11.835,16.387,27.311,30.042,45.519,40.967c12.745,7.283,26.401,12.745,40.967,16.387l2.731,0.91 c2.731,0.91,6.373,0.91,9.104,1.821c2.731,0,4.552,0.91,7.283,0.91h2.731h4.552h4.552h3.641h6.373c3.641,0,7.283-0.91,10.924-0.91 C166.598,284.671,169.329,284.671,169.329,284.671z M261.277,107.149v0.91V107.149L261.277,107.149z"/></symbol><symbol id="microsoft" viewBox="0 0 291.346 291.346"><title>microsoft</title><path style="fill:#26A6D1;" d="M117.547,266.156L0,249.141v-94.296h117.547V266.156z"/><path style="fill:#3DB39E;" d="M291.346,136.51H136.31l0.055-114.06L291.346,0.009V136.51z"/><path style="fill:#F4B459;" d="M291.346,291.337l-155.091-22.459l0.182-114.015h154.909V291.337z"/><path style="fill:#E2574C;" d="M117.547,136.51H0V42.205l117.547-17.024V136.51z"/></symbol><symbol id="opera" viewBox="0 0 291.492 291.492"><title>opera</title><path style="fill:#E2574C;" d="M224.138,22.932C202.571,8.166,175.879,0,145.782,0c-27.53,0-52.201,6.81-72.73,19.263 C33.534,42.997,9.199,87.423,9.199,144.349c0,76.999,54.613,147.143,136.556,147.143c81.933,0,136.538-70.126,136.538-147.143 C282.284,90.227,260.289,47.403,224.138,22.932z M145.773,27.193c43.953,0,54.586,61.068,54.586,116.537 c0,51.4-6.664,120.178-54.058,120.178s-55.214-69.452-55.214-120.843C91.096,87.596,101.811,27.193,145.773,27.193z"/></symbol><symbol id="safari" viewBox="0 0 291.32 291.32"><title>safari</title><path style="fill:#26A6D1;" d="M145.66,0C65.547,0,0,65.547,0,145.66s65.547,145.66,145.66,145.66s145.66-65.547,145.66-145.66 S225.772,0,145.66,0z M145.66,264.008c-65.547,0-118.348-52.802-118.348-118.348S80.113,27.311,145.66,27.311 S264.008,80.113,264.008,145.66S211.206,264.008,145.66,264.008z"/><path style="fill:#E2574C;" d="M221.22,70.099l-56.443,94.679l-38.236-38.236C126.542,126.542,221.22,70.099,221.22,70.099z"/><path style="fill:#E4E7E7;" d="M70.099,221.22l94.679-56.443l-38.236-38.236C126.542,126.542,70.099,221.22,70.099,221.22z"/></symbol><symbol id="twitter" viewBox="0 0 512 512"><title>twitter</title><path style="fill:#03A9F4;" d="M512,97.248c-19.04,8.352-39.328,13.888-60.48,16.576c21.76-12.992,38.368-33.408,46.176-58.016 c-20.288,12.096-42.688,20.64-66.56,25.408C411.872,60.704,384.416,48,354.464,48c-58.112,0-104.896,47.168-104.896,104.992 c0,8.32,0.704,16.32,2.432,23.936c-87.264-4.256-164.48-46.08-216.352-109.792c-9.056,15.712-14.368,33.696-14.368,53.056 c0,36.352,18.72,68.576,46.624,87.232c-16.864-0.32-33.408-5.216-47.424-12.928c0,0.32,0,0.736,0,1.152 c0,51.008,36.384,93.376,84.096,103.136c-8.544,2.336-17.856,3.456-27.52,3.456c-6.72,0-13.504-0.384-19.872-1.792 c13.6,41.568,52.192,72.128,98.08,73.12c-35.712,27.936-81.056,44.768-130.144,44.768c-8.608,0-16.864-0.384-25.12-1.44 C46.496,446.88,101.6,464,161.024,464c193.152,0,298.752-160,298.752-298.688c0-4.64-0.16-9.12-0.384-13.568 C480.224,136.96,497.728,118.496,512,97.248z"/></symbol><symbol id="apple" viewBox="0 0 512.005 512.005"><title>apple</title><path style="fill:#37474F;" d="M461.852,355.712c-1.692-2.616-4.443-4.362-7.531-4.779c-40.621-5.306-69.25-42.537-63.944-83.158 c3.748-28.694,23.84-52.588,51.465-61.205c5.61-1.798,8.701-7.803,6.903-13.413c-0.28-0.873-0.671-1.707-1.164-2.481 c-18.641-33.642-51.786-56.779-89.792-62.677c-19.152,0.914-38.026,4.957-55.872,11.968c-12.817,5.158-26.351,8.317-40.128,9.365 c-13.777-1.048-27.311-4.207-40.128-9.365c-17.846-7.011-36.72-11.054-55.872-11.968c-39.829,0-117.333,56.469-117.333,160 c0,98.389,71.765,224,128,224c21.457,0.192,42.656-4.691,61.867-14.251c7.235-3.99,15.232-6.404,23.467-7.083 c8.234,0.679,16.232,3.093,23.467,7.083c19.211,9.56,40.41,14.443,61.867,14.251c44.587,0,94.912-76.544,115.989-147.477 C463.995,361.543,463.535,358.325,461.852,355.712z"/><path style="fill:#37474F;" d="M251.121,128c64.772-0.071,117.263-52.561,117.333-117.333C368.454,4.776,363.679,0,357.788,0 c-64.772,0.071-117.263,52.561-117.333,117.333C240.454,123.224,245.23,128,251.121,128z"/></symbol><symbol id="ubuntu" viewBox="0 0 512 512"><title>ubuntu</title><circle style="fill:#FF5722;" cx="54.674" cy="256" r="53.333"/><circle style="fill:#FF5722;" cx="406.61" cy="458.667" r="53.333"/><circle style="fill:#FF5722;" cx="406.61" cy="53.333" r="53.333"/><path style="fill:#FF5722;" d="M262.098,147.669c2.383,4.129,7.216,6.176,11.84,5.013c55.924-14.4,113.089,18.592,128.597,74.219 c1.298,4.593,5.489,7.764,10.261,7.765h87.168c5.891,0.003,10.669-4.77,10.673-10.661c0-0.566-0.045-1.132-0.134-1.691 c-6.168-38.801-22.959-75.137-48.512-104.981c-3.524-4.066-9.524-4.871-13.995-1.877c-12.228,8.182-26.61,12.548-41.323,12.544 c-40.78-0.145-73.959-32.869-74.667-73.643c-0.078-5.395-4.171-9.882-9.536-10.453c-33.448-3.504-67.251,0.925-98.667,12.928 c-5.501,2.108-8.251,8.277-6.143,13.778c0.201,0.524,0.443,1.032,0.724,1.518L262.098,147.669z"/><path style="fill:#FF5722;" d="M499.986,277.333h-87.168c-4.772,0.001-8.963,3.173-10.261,7.765 c-15.489,55.642-72.67,88.643-128.597,74.219c-4.624-1.163-9.457,0.884-11.84,5.013l-43.605,75.541 c-2.947,5.101-1.201,11.625,3.9,14.572c0.486,0.281,0.994,0.523,1.518,0.724c31.384,12.127,65.217,16.56,98.667,12.928 c5.365-0.571,9.458-5.059,9.536-10.453c0.472-41.14,34.205-74.109,75.345-73.637c14.435,0.165,28.511,4.521,40.516,12.538 c4.491,2.991,10.507,2.157,14.016-1.941c25.542-29.826,42.332-66.138,48.512-104.917c0.931-5.817-3.03-11.287-8.847-12.218 C501.118,277.378,500.552,277.333,499.986,277.333z"/><path style="fill:#FF5722;" d="M223.548,330.261c-40.254-41.333-40.254-107.211,0-148.544c3.338-3.429,3.983-8.662,1.579-12.8 l-43.541-75.371c-1.564-2.711-4.239-4.599-7.317-5.163c-3.058-0.527-6.198,0.246-8.661,2.133 c-30.98,25.188-54.276,58.557-67.243,96.32c-1.451,4.211-0.133,8.881,3.307,11.712c31.735,25.306,36.947,71.546,11.641,103.281 c-3.432,4.304-7.337,8.209-11.641,11.641c-3.44,2.831-4.758,7.501-3.307,11.712c12.975,37.729,36.263,71.067,67.221,96.235 c1.905,1.549,4.286,2.392,6.741,2.389c0.644-0.004,1.286-0.061,1.92-0.171c3.078-0.564,5.754-2.452,7.317-5.163l43.541-75.413 C227.516,338.928,226.879,333.696,223.548,330.261z"/></symbol><symbol id="note" viewBox="0 0 512.001 512.001"><title>note</title><path style="fill:#1E88E5;" d="M499.628,407.468c-10.128,12.16-25.134,19.194-40.96,19.2H53.334 c-15.826-0.006-30.832-7.04-40.96-19.2l195.627-162.987l20.267,13.867c16.695,11.52,38.772,11.52,55.467,0l20.267-13.867 L499.628,407.468z"/><path style="fill:#64B5F6;" d="M502.614,108.588L304.001,244.481l-20.267,13.867c-16.695,11.52-38.772,11.52-55.467,0 l-20.267-13.867L9.388,108.374c9.994-14.411,26.409-23.017,43.947-23.04h405.333C476.285,85.241,492.781,93.969,502.614,108.588z"/><g> <path style="fill:#2196F3;" d="M208.001,244.481L12.374,407.468c-8.007-9.57-12.388-21.655-12.373-34.133V138.668 c-0.065-10.823,3.214-21.403,9.387-30.293L208.001,244.481z"/> <path style="fill:#2196F3;" d="M512.001,138.668v234.667c0.014,12.478-4.366,24.563-12.373,34.133L304.001,244.481l198.613-135.893 C508.756,117.414,512.033,127.915,512.001,138.668z"/> </g></symbol><symbol id="github" viewBox="0 0 512 512"><title>github</title><path style="fill:#5C6BC0;" d="M255.968,5.329C114.624,5.329,0,120.401,0,262.353c0,113.536,73.344,209.856,175.104,243.872 c12.8,2.368,17.472-5.568,17.472-12.384c0-6.112-0.224-22.272-0.352-43.712c-71.2,15.52-86.24-34.464-86.24-34.464 c-11.616-29.696-28.416-37.6-28.416-37.6c-23.264-15.936,1.728-15.616,1.728-15.616c25.696,1.824,39.2,26.496,39.2,26.496 c22.848,39.264,59.936,27.936,74.528,21.344c2.304-16.608,8.928-27.936,16.256-34.368c-56.832-6.496-116.608-28.544-116.608-127.008 c0-28.064,9.984-51.008,26.368-68.992c-2.656-6.496-11.424-32.64,2.496-68c0,0,21.504-6.912,70.4,26.336 c20.416-5.696,42.304-8.544,64.096-8.64c21.728,0.128,43.648,2.944,64.096,8.672c48.864-33.248,70.336-26.336,70.336-26.336 c13.952,35.392,5.184,61.504,2.56,68c16.416,17.984,26.304,40.928,26.304,68.992c0,98.72-59.84,120.448-116.864,126.816 c9.184,7.936,17.376,23.616,17.376,47.584c0,34.368-0.32,62.08-0.32,70.496c0,6.88,4.608,14.88,17.6,12.352 C438.72,472.145,512,375.857,512,262.353C512,120.401,397.376,5.329,255.968,5.329z"/></symbol><symbol id="curriculum-vitae" viewBox="0 0 512 512"><title>curriculum-vitae</title><g> <g> <polygon points="333.205,34.213 330.799,0 9.545,22.591 39.863,453.709 68.863,451.669 68.863,79.817 420.93,79.817 420.93,478.34 456.185,482.135 502.455,52.438 "/> </g> </g><g> <g> <path d="M98.884,109.838V512H390.91V109.838H98.884z M195.09,178.286c18.508,0,33.097,6.755,42.418,18.912l-20.128,17.966 c-5.539-7.025-12.157-11.078-20.668-11.078c-13.239,0-22.154,9.186-22.154,23.64c0,14.454,8.916,23.64,22.154,23.64 c8.511,0,15.13-4.053,20.668-11.078l20.128,17.966c-9.321,12.157-23.911,18.912-42.418,18.912 c-30.395,0-52.684-20.398-52.684-49.442C142.406,198.684,164.696,178.286,195.09,178.286z M342.795,448.571H146.998V418.55 h195.797V448.571z M342.795,395.172H146.998v-30.021h195.797V395.172z M342.795,341.773H146.998v-30.021h195.797V341.773z M307.756,275.009h-31.341l-39.986-94.562h34.313l22.56,55.251l23.101-55.251h31.339L307.756,275.009z"/> </g> </g></symbol><symbol id="sakura-1" viewBox="0 0 1049 1024"><title>sakura-1</title><defs><style type="text/css">@font-face { font-family: "weel-translate"; font-style: normal; font-weight: normal; src: url("moz-extension://6df79949-f4b5-4469-9d15-fba558fbc8ad/fonts/weel-translate.ttf") format("truetype"), url("moz-extension://6df79949-f4b5-4469-9d15-fba558fbc8ad/fonts/weel-translate.woff") format("woff"); } @font-face { font-family: "weel-translate"; font-style: normal; font-weight: normal; src: url("moz-extension://6df79949-f4b5-4469-9d15-fba558fbc8ad/fonts/weel-translate.ttf") format("truetype"), url("moz-extension://6df79949-f4b5-4469-9d15-fba558fbc8ad/fonts/weel-translate.woff") format("woff"); } @font-face { font-family: "weel-translate"; font-style: normal; font-weight: normal; src: url("moz-extension://6df79949-f4b5-4469-9d15-fba558fbc8ad/fonts/weel-translate.ttf") format("truetype"), url("moz-extension://6df79949-f4b5-4469-9d15-fba558fbc8ad/fonts/weel-translate.woff") format("woff"); } @font-face { font-family: "weel-translate"; font-style: normal; font-weight: normal; src: url("moz-extension://6df79949-f4b5-4469-9d15-fba558fbc8ad/fonts/weel-translate.ttf") format("truetype"), url("moz-extension://6df79949-f4b5-4469-9d15-fba558fbc8ad/fonts/weel-translate.woff") format("woff"); } </style></defs><path d="M525.58396628 573.34694353s268.83106938-2.62915481 309.36387092 193.24287089l-76.46458293 21.90962291 12.92667757 84.13295086a214.05701289 214.05701289 0 0 1-96.84053193-4.82011663A224.79272784 224.79272784 0 0 1 525.58396628 578.38615666z" fill="#ffc0cb" p-id="1452"/><path d="M552.75189802 512.4381922s131.45773592-233.7756732 321.63325979-170.89505575L854.2283053 418.66500728l79.31283344 30.89256828a215.59068679 215.59068679 0 0 1-52.58309388 81.50379604 224.57363215 224.57363215 0 0 1-325.35789552-14.67944718z" fill="#ffc0cb" p-id="1453"/><path d="M508.49446078 494.0341093S317.00435871 306.48774025 426.77156822 139.31731943l69.4535037 38.78003191L547.4935884 109.30113636a214.05701289 214.05701289 0 0 1 65.72886796 71.86356201 225.01182435 225.01182435 0 0 1-98.37420505 310.67844912z" fill="#ffc0cb" p-id="1454"/><path d="M473.21996809 525.58396628S242.2925454 661.64272234 109.30113636 512.4381922l55.43134521-57.18411482-53.45947909-65.72886795a213.61882069 213.61882069 0 0 1 86.32391269-43.81924506 224.79272784 224.79272784 0 0 1 274.527572 175.27698099z" fill="#ffc0cb" p-id="1455"/><path d="M481.76472043 566.55496s72.0826585 258.31445093-106.4807652 348.14390364l-40.31370582-68.13892627-78.21735252 34.17901099a212.30424328 212.30424328 0 0 1-20.15685331-94.64956933 224.57363215 224.57363215 0 0 1 241.00584894-219.09622602z" fill="#ffc0cb" p-id="1456"/></symbol><symbol id="wechat" viewBox="0 0 512 512"><title>wechat</title><g> <path style="fill:#8BC34A;" d="M512,320c0-70.688-71.648-128-160-128s-160,57.312-160,128s71.648,128,160,128 c14.528,0,28.352-2.048,41.76-4.96L480,480l-29.824-59.616C487.552,396.96,512,360.928,512,320z"/> <path style="fill:#8BC34A;" d="M192,32C85.952,32,0,103.648,0,192c0,50.944,28.736,96.128,73.312,125.376L48,368l68.96-29.536 c14.784,5.248,30.144,9.568,46.56,11.584c-2.24-9.76-3.52-19.776-3.52-30.048c0-88.224,86.112-160,192-160 c9.696,0,19.168,0.8,28.512,1.952C363.616,87.968,285.696,32,192,32z"/> </g><g> <circle style="fill:#000; fill-opacity:.5" cx="128" cy="128" r="24"/> <circle style="fill:#000; fill-opacity:.5" cx="256" cy="128" r="24"/> <circle style="fill:#000; fill-opacity:.5" cx="304" cy="288" r="24"/> <circle style="fill:#000; fill-opacity:.5" cx="400" cy="288" r="24"/> </g></symbol><symbol id="linux" viewBox="0 0 512 512"><title>linux</title><path style="fill:#F7F7F7;" d="M334.205,214.15c0-12.564-14.605-19.574-24.405-11.686C280.927,225.706,280.099,241,256.005,241 c-24.105,0-24.666-15.089-53.794-38.536c-9.788-7.877-24.405-0.897-24.405,11.686c0,49.557-35.29,59.122-35.29,116.52 c0,4.839,2.335,9.382,6.27,12.198c0.536,0.384,2.169,1.552,2.377,5.931c3.232,67.334,35.002,95.911,9.726,122.017 c-7.122,7.357-4.933,19.555,4.313,23.971C188.117,505.726,221.214,512,256.005,512c34.815,0,67.913-6.275,90.807-17.216 c9.234-4.412,11.435-16.608,4.309-23.968c-25.264-26.094,6.495-54.718,9.727-122.024c0.207-4.372,1.84-5.54,2.376-5.924 c3.936-2.816,6.27-7.359,6.27-12.198C369.494,273.364,334.205,263.613,334.205,214.15z"/><path style="fill:#E0E0E0;" d="M334.205,214.15c0-12.564-14.605-19.574-24.405-11.686c-28.871,23.24-29.701,38.534-53.791,38.536 v271c34.814,0,67.911-6.275,90.804-17.216c9.234-4.412,11.435-16.608,4.308-23.968c-25.264-26.094,6.495-54.718,9.727-122.024 c0.207-4.372,1.84-5.54,2.376-5.924c3.936-2.816,6.271-7.359,6.271-12.198C369.494,273.364,334.205,263.613,334.205,214.15z"/><path style="fill:#294A4A;" d="M402.208,129.56C398.413,47.149,337.795,0,256.005,0c-81.802,0-142.408,47.16-146.203,129.562 c-4.596,99.997-73.812,145.035-30.986,239.872c6.359,14.079,48.43,22.368,44.976-12.279c-1.313-13.199,18.47-18.976,24.967-14.306 c9.901,7.123,23.757,0.027,23.757-12.178c0-47.031,35.29-57.097,35.29-116.52c0-4.527-2.045-8.813-5.564-11.661 c-4.881-3.95-10.788-8.382-17.565-13.18c4.52-1.122,9.218-2.171,13.962-3.121c11.729-2.346,16.112-16.848,7.677-25.302 c-5.791-5.805-9.248-15.639-9.248-26.306c0-14.426,7.689-30.56,17.979-30.56c10.29,0,17.979,16.134,17.979,30.56 c0,6.881-1.423,13.397-4.061,18.799c-12.684,8.456-6.027,28.468,9.296,27.458c11.661-0.768,23.007-0.822,35.49,0 c15.321,1.003,21.98-19.002,9.296-27.458c-2.638-5.402-4.06-11.918-4.06-18.799c0-14.426,7.689-30.56,17.979-30.56 s17.979,16.134,17.979,30.56c0,10.667-3.457,20.501-9.248,26.306c-8.448,8.467-4.034,22.959,7.677,25.302 c4.741,0.949,9.435,1.998,13.962,3.121c-6.772,4.794-12.682,9.229-17.565,13.18c-3.52,2.848-5.564,7.133-5.564,11.661 c0,59.673,35.29,69.277,35.29,116.52c0,12.195,13.848,19.305,23.757,12.178c6.508-4.678,26.279,1.111,24.967,14.306 c-3.459,34.706,38.666,26.25,44.976,12.279C476.035,274.564,406.805,229.602,402.208,129.56z"/><path style="fill:#1C2323;" d="M402.208,129.56C398.413,47.15,337.796,0.001,256.008,0v180.244c5.755,0,11.61,0.19,17.742,0.594 c15.321,1.003,21.98-19.002,9.296-27.458c-2.638-5.402-4.061-11.918-4.061-18.799c0-14.426,7.689-30.56,17.979-30.56 s17.979,16.134,17.979,30.56c0,10.667-3.457,20.501-9.248,26.306c-8.448,8.467-4.034,22.959,7.677,25.302 c4.741,0.949,9.435,1.998,13.962,3.121c-6.772,4.794-12.682,9.229-17.565,13.18c-3.52,2.848-5.564,7.133-5.564,11.661 c0,59.673,35.29,69.277,35.29,116.52c0,12.195,13.848,19.305,23.757,12.178c6.508-4.678,26.279,1.111,24.967,14.306 c-3.459,34.706,38.666,26.25,44.976,12.279C476.035,274.564,406.805,229.602,402.208,129.56z"/><path style="fill:#F7F7F7;" d="M296.965,74.02c-17.542,0-32.6,11.313-40.96,28.596c-8.36-17.283-23.418-28.596-40.96-28.596 c-26.116,0-47.979,26.105-47.979,60.56c0,18.71,6.564,36.021,18.01,47.494c3.531,3.539,8.608,5.101,13.553,4.117 c13.892-2.744,25.463-4.418,41.45-5.473c4.61-0.303,8.824-2.714,11.422-6.535c1.678-2.469,3.176-5.104,4.505-7.862 c1.329,2.758,2.827,5.393,4.505,7.862c2.598,3.821,6.811,6.232,11.422,6.535c16.083,1.061,27.356,2.731,41.45,5.473 c4.942,0.984,10.022-0.577,13.553-4.117c11.445-11.473,18.01-28.784,18.01-47.494C344.944,99.867,322.894,74.02,296.965,74.02z"/><path style="fill:#E0E0E0;" d="M296.965,74.02c-17.54,0-32.596,11.311-40.957,28.59v63.717c1.328,2.756,2.825,5.389,4.502,7.855 c2.598,3.821,6.812,6.232,11.422,6.535c16.083,1.061,27.356,2.731,41.45,5.473c4.942,0.984,10.022-0.577,13.553-4.117 c11.445-11.473,18.01-28.784,18.01-47.494C344.944,99.867,322.894,74.02,296.965,74.02z"/><path style="fill:#FFD664;" d="M181.129,347.368c-1.587-33.384-36.895-45.099-64.702-29.054 c-11.925,6.88-19.638,17.487-21.962,29.628c-12.596-4.743-34.283-11.062-51.554,6.211c-17.196,17.197-11.215,38.257-6.221,51.549 C7.109,411.32-7.866,448.004,4.173,472.406c5.918,11.996,17.561,19.274,31.942,19.966c44.303,2.136,72.443,19.608,101.333,19.608 c15.928,0,30.928-5.613,44.995-20.297C222.882,449.918,184.219,411.785,181.129,347.368z"/><path style="fill:#FF9842;" d="M475.32,405.702c4.994-13.292,10.975-34.352-6.221-51.549c-17.27-17.271-38.959-10.954-51.554-6.211 c-2.323-12.142-10.037-22.748-21.962-29.628c-27.847-16.066-63.118-4.298-64.702,29.047c-3.12,65.003-42.313,102.816-0.316,145.334 c14.532,14.537,29.132,19.285,44.002,19.285c28.892,0,57.023-17.471,101.328-19.607h-0.001c14.382-0.692,26.025-7.97,31.943-19.966 C519.813,448.133,505.025,411.342,475.32,405.702z"/><path style="fill:#FFD664;" d="M334.598,160.202C282.223,147.2,231.579,146.756,177.42,160.2 c-24.915,6.168-31.021,38.792-10.081,53.593c19.708,13.948,25.211,19.72,34.619,29.775C214.577,257.055,227.626,271,256.005,271 s41.428-13.945,54.047-27.432c9.177-9.809,14.728-15.697,34.619-29.775C365.612,198.98,359.501,166.367,334.598,160.202z"/><path style="fill:#FF9842;" d="M334.598,160.202c-26.412-6.557-52.385-9.915-78.59-9.914V271 c28.377-0.001,41.426-13.946,54.044-27.432c9.177-9.809,14.728-15.697,34.619-29.775 C365.612,198.98,359.501,166.367,334.598,160.202z"/><circle style="fill:#1C2323;" cx="299.16" cy="122.81" r="15.745"/><circle style="fill:#294A4A;" cx="212.84" cy="122.81" r="15.745"/></symbol><symbol id="weibo" viewBox="0 0 512 512"><title>weibo</title><path style="fill:#EA533B;" d="M403.51,247.992c12.189-23.721,13.499-45.899,3.546-63.137 c-10.316-17.868-31.605-28.033-59.944-28.622c-20.81-0.427-44.439,4.311-68.131,13.528c8.166-27.851,5.532-49.961-7.876-63.369 c-16.113-16.113-44.899-16.666-81.056-1.558c-33.715,14.088-70.764,40.33-104.325,73.889 c-49.982,49.983-83.19,107.958-84.779,147.93C0.318,330.616,0,334.579,0,338.441c0,35.793,25.09,69.017,70.648,93.547 c43.858,23.617,101.979,36.622,163.656,36.622s119.798-13.005,163.656-36.622c45.558-24.53,70.648-57.754,70.648-93.547 C468.609,304.067,445.576,272.184,403.51,247.992z"/><path style="fill:#D93C1C;" d="M260.338,459.932c-61.677,0-119.798-13.005-163.656-36.622 c-45.558-24.53-70.648-57.754-70.648-93.547c0-3.863,0.318-7.825,0.945-11.787c1.589-39.973,34.797-97.947,84.78-147.93 c33.227-33.226,69.87-59.27,103.314-73.458c-7.854,1.823-16.218,4.566-25.023,8.245c-33.715,14.088-70.764,40.33-104.325,73.889 C35.742,228.707,2.534,286.682,0.945,326.654C0.318,330.616,0,334.579,0,338.441c0,35.793,25.09,69.017,70.648,93.547 c43.858,23.617,101.979,36.622,163.656,36.622c48.616,0,95.016-8.086,133.969-23.074 C335.352,454.941,298.529,459.932,260.338,459.932z"/><path style="fill:#FFFFFF;" d="M364.19,312.032c-2.568-29.565-22.081-55.61-54.944-73.338 c-31.681-17.091-72.302-24.49-114.382-20.835c-42.079,3.656-80.818,17.949-109.076,40.247 c-29.314,23.131-44.045,52.151-41.476,81.715c2.569,29.565,22.082,55.61,54.946,73.338c26.389,14.236,58.976,21.748,93.447,21.747 c6.913,0,13.905-0.302,20.934-0.913c42.079-3.654,80.817-17.948,109.075-40.246C352.029,370.616,366.758,341.596,364.19,312.032z"/><path style="fill:#E5E5E5;" d="M230.36,425.319c-7.029,0.611-14.021,0.913-20.934,0.913c-34.471,0.001-67.059-7.511-93.447-21.747 c-32.863-17.729-52.378-43.774-54.946-73.338c-2.569-29.564,12.161-58.584,41.476-81.715c5.799-4.575,12.046-8.808,18.665-12.687 c-12.993,5.932-24.911,13.095-35.388,21.361c-29.314,23.131-44.045,52.151-41.476,81.715c2.569,29.565,22.082,55.61,54.946,73.338 c26.389,14.236,58.976,21.748,93.447,21.747c6.913,0,13.905-0.302,20.934-0.913c33.445-2.905,64.771-12.535,90.41-27.559 C281.994,416.503,256.841,423.019,230.36,425.319z"/><path style="fill:#333333;" d="M286.65,312.533c-9.507-39.544-55.55-62.508-102.638-51.189 c-47.088,11.32-77.661,52.703-68.156,92.249c4.682,19.473,18.156,35.492,37.943,45.105c12.283,5.967,26.102,9.003,40.355,9.003 c8.042,0,16.221-0.967,24.339-2.918C265.582,393.462,296.157,352.08,286.65,312.533z"/><circle style="fill:#FFFFFF;" cx="177.898" cy="351.457" r="30.373"/><g> <path style="fill:#FFA929;" d="M373.152,117.153c-7.189,0-13.017,5.828-13.017,13.017c0,7.189,5.828,13.017,13.017,13.017 c26.318,0,47.729,21.411,47.729,47.729c0,7.189,5.828,13.017,13.017,13.017s13.017-5.828,13.017-13.017 C446.914,150.243,413.824,117.153,373.152,117.153z"/> <path style="fill:#FFA929;" d="M364.475,43.39c-3.261,0-6.564,0.108-9.817,0.322c-9.564,0.629-16.808,8.893-16.18,18.458 c0.629,9.564,8.9,16.804,18.458,16.18c2.498-0.164,5.035-0.248,7.539-0.248c62.206,0,112.813,50.608,112.813,112.813 c0,7.606-0.759,15.204-2.257,22.581c-1.396,6.875,1.691,14.209,7.576,18.025c5.99,3.884,14.111,3.587,19.829-0.675 c3.388-2.525,5.774-6.307,6.614-10.445c1.958-9.646,2.95-19.566,2.95-29.487C512,109.571,445.82,43.39,364.475,43.39z"/> </g><circle style="fill:#FFFFFF;" cx="234.305" cy="321.085" r="17.356"/></symbol><symbol id="instagram" viewBox="0 0 512 512"><title>instagram</title><path style="fill:#FDE494;" d="M114.759,512h61.103l-96.414-61.793L0.198,403.898C3.659,464.09,53.716,512,114.759,512z"/><path style="fill:#FEA150;" d="M335.448,476.69l-69.006-17.655H114.759c-34.072,0-61.793-27.721-61.793-61.793v-33.876 l-26.483-28.42L0,339.628v57.613c0,2.236,0.072,4.454,0.198,6.657L175.862,512h208.767L335.448,476.69z"/><path style="fill:#FF5D4A;" d="M441.655,440.14c-11.244,11.637-26.993,18.894-44.414,18.894H266.442L384.629,512h12.612 c41.202,0,77.396-21.829,97.64-54.527l-27.022-16.094L441.655,440.14z"/><path style="fill:#E45261;" d="M459.034,326.014v71.228c0,16.652-6.633,31.775-17.379,42.899l53.227,17.333 C505.728,439.954,512,419.318,512,397.241v-62.805l-27.396-15.391L459.034,326.014z"/><polygon style="fill:#FF4D95;" points="512,149.19 483.797,142.474 459.034,157.3 459.034,326.014 512,334.436 "/><path style="fill:#CB319C;" d="M512,114.759c0-57.633-42.708-105.473-98.136-113.55L344.43,30.101l-35.183,22.865h87.994 c34.072,0,61.793,27.721,61.793,61.793V157.3L512,149.19V114.759z"/><path style="fill:#8A3293;" d="M317.732,0l-65.682,24.636l-51.805,28.33h109.002L413.864,1.208C408.435,0.417,402.887,0,397.241,0 H317.732z"/><path style="fill:#FF5D4A;" d="M256,406.069c18.358,0,35.954-3.32,52.226-9.38l-86.02-39.047l-91.178-18.657 C157.946,379.39,203.913,406.069,256,406.069z"/><path style="fill:#E45261;" d="M329.153,305.358c-15.883,23.465-42.748,38.918-73.153,38.918c-40.273,0-74.308-27.118-84.867-64.046 l-23.682-14.801l-40.847,4.538c2.353,25.345,11.014,48.887,24.425,69.017l177.198,57.705c38.303-14.264,69.237-43.757,85.458-81.068 l-31.753-16.085L329.153,305.358z"/><g> <path style="fill:#FF4D95;" d="M167.724,256c0-21.878,8.018-41.907,21.247-57.346l-37.658-5.268l-38.25,16.892 c-4.625,14.422-7.132,29.784-7.132,45.722c0,4.712,0.244,9.365,0.671,13.966l64.53,10.262 C168.929,272.524,167.724,264.403,167.724,256z"/> <path style="fill:#FF4D95;" d="M406.069,256c0-32.138-10.159-61.946-27.428-86.39l-37.397-5.308l-38.418,16.917 c24.873,15.631,41.45,43.298,41.45,74.781c0,18.27-5.58,35.261-15.123,49.358l64.531,10.262 C401.634,297.334,406.069,277.18,406.069,256z"/> </g><g> <path style="fill:#CB319C;" d="M256,167.724c17.194,0,33.242,4.959,46.826,13.495l75.815-11.609 c-27.196-38.493-72.03-63.679-122.641-63.679c-66.81,0-123.554,43.889-142.937,104.345l75.908-11.624 C205.173,179.742,229.203,167.724,256,167.724z"/> <path style="fill:#CB319C;" d="M397.241,150.069c19.47,0,35.31-15.84,35.31-35.31s-15.84-35.31-35.31-35.31 c-19.47,0-35.31,15.84-35.31,35.31S377.771,150.069,397.241,150.069z"/> </g><polygon style="fill:#FF5D4A;" points="52.966,313.564 27.47,300.847 0,296.316 0,339.629 52.966,363.366 "/><polygon style="fill:#E45261;" points="0,253.014 0,296.316 52.966,313.564 52.966,261.437 25.446,251.543 "/><polygon style="fill:#FF4D95;" points="52.966,219.479 25.749,219.233 0,227.59 0,253.014 52.966,261.437 "/><polygon style="fill:#CB319C;" points="52.966,179.757 24.911,182.603 0,205.962 0,227.59 52.966,219.479 "/><polygon style="fill:#8A3293;" points="0,205.962 52.966,179.757 52.966,119.362 21.9,122.333 0,143.241 "/><path style="fill:#523494;" d="M205.059,0L84.206,46.481L1.387,96.928C0.477,102.741,0,108.695,0,114.759v28.482l52.966-23.878 v-4.605c0-34.072,27.721-61.793,61.793-61.793h85.487L317.732,0H205.059z"/><path style="fill:#2D2D87;" d="M114.759,0C57.545,0,9.978,42.088,1.387,96.928L205.059,0H114.759z"/></symbol><symbol id="internet-explorer" viewBox="0 0 503.417 503.417"><title>internet-explorer</title><path style="fill:#00C8F6;" d="M179.649,292.487c0,17.067,7.186,31.439,15.27,46.709c8.982,16.168,21.558,28.744,37.726,38.625 s33.235,14.372,52.996,14.372c18.863,0,36.828-4.491,52.996-14.372c16.168-9.881,27.846-24.253,37.726-40.421h125.754 c-16.168,45.811-44.014,85.333-84.435,114.077s-85.333,44.014-134.737,44.014c-36.828,0-72.758-8.084-105.095-24.253 c-73.656,35.93-126.653,37.726-158.989,5.389C5.389,465.848,0,447.883,0,423.631s4.491-52.098,14.372-81.74 c9.881-30.54,25.151-62.877,47.607-99.705c17.067-28.744,29.642-51.2,78.147-97.909c17.965-17.965,26.049-26.947,30.54-31.439 c-43.116,20.66-98.807,59.284-143.719,98.807c26.947-66.47,64.674-100.604,110.484-129.347 c49.404-29.642,89.825-49.404,143.719-49.404c5.389,0,10.779,0,17.067,0.898C337.74,15.827,373.67,6.845,406.007,4.15 c32.337-1.796,54.793,3.593,68.267,16.168c26.947,26.947,28.744,70.063,7.186,128.449c20.66,35.93,21.558,76.351,21.558,117.67 c0,9.881,0.898,18.863,0,26.947H386.246H179.649V292.487z"/><g> <path style="fill:#FFFFFF;" d="M143.719,445.189c-46.709-28.744-62.877-52.098-81.74-103.298 c-31.439,61.081-40.421,88.926-17.067,112.281C65.572,474.831,89.825,469.441,143.719,445.189"/> <path style="fill:#FFFFFF;" d="M377.263,229.61c-1.796-25.151-10.779-47.607-29.642-64.674 c-18.863-17.965-41.319-25.151-66.47-25.151c-26.049,0-47.607,7.186-66.47,25.151s-32.337,39.523-34.133,64.674H377.263z"/> <path style="fill:#FFFFFF;" d="M366.484,49.062c43.116,21.558,50.302,25.151,82.639,63.775 c10.779-29.642,12.575-37.726,8.084-46.709c-4.491-10.779-13.474-18.863-23.354-24.253 C417.684,32.894,406.905,32.894,366.484,49.062"/> </g></symbol><symbol id="soundcloud" viewBox="0 0 291.319 291.319"><title>soundcloud</title><path style="fill:#FF7700;" d="M72.83,218.485h18.207V103.832c-6.828,1.93-12.982,5.435-18.207,10.041 C72.83,113.874,72.83,218.485,72.83,218.485z M36.415,140.921v77.436l1.174,0.127h17.033v-77.682H37.589 C37.589,140.803,36.415,140.921,36.415,140.921z M0,179.63c0,14.102,7.338,26.328,18.207,33.147V146.52 C7.338,153.329,0,165.556,0,179.63z M109.245,218.485h18.207v-109.6c-5.444-3.396-11.607-5.635-18.207-6.5V218.485z M253.73,140.803h-10.242c0.519-3.168,0.847-6.382,0.847-9.705c0-32.182-25.245-58.264-56.388-58.264 c-16.896,0-31.954,7.775-42.287,19.955v125.695h108.07c20.747,0,37.589-17.388,37.589-38.855 C291.319,158.182,274.477,140.803,253.73,140.803z"/></symbol><symbol id="user" viewBox="0 0 53 53"><title>user</title><path style="fill:#E7ECED;" d="M18.613,41.552l-7.907,4.313c-0.464,0.253-0.881,0.564-1.269,0.903C14.047,50.655,19.998,53,26.5,53 c6.454,0,12.367-2.31,16.964-6.144c-0.424-0.358-0.884-0.68-1.394-0.934l-8.467-4.233c-1.094-0.547-1.785-1.665-1.785-2.888v-3.322 c0.238-0.271,0.51-0.619,0.801-1.03c1.154-1.63,2.027-3.423,2.632-5.304c1.086-0.335,1.886-1.338,1.886-2.53v-3.546 c0-0.78-0.347-1.477-0.886-1.965v-5.126c0,0,1.053-7.977-9.75-7.977s-9.75,7.977-9.75,7.977v5.126 c-0.54,0.488-0.886,1.185-0.886,1.965v3.546c0,0.934,0.491,1.756,1.226,2.231c0.886,3.857,3.206,6.633,3.206,6.633v3.24 C20.296,39.899,19.65,40.986,18.613,41.552z"/><g> <path style="fill:#556080;" d="M26.953,0.004C12.32-0.246,0.254,11.414,0.004,26.047C-0.138,34.344,3.56,41.801,9.448,46.76 c0.385-0.336,0.798-0.644,1.257-0.894l7.907-4.313c1.037-0.566,1.683-1.653,1.683-2.835v-3.24c0,0-2.321-2.776-3.206-6.633 c-0.734-0.475-1.226-1.296-1.226-2.231v-3.546c0-0.78,0.347-1.477,0.886-1.965v-5.126c0,0-1.053-7.977,9.75-7.977 s9.75,7.977,9.75,7.977v5.126c0.54,0.488,0.886,1.185,0.886,1.965v3.546c0,1.192-0.8,2.195-1.886,2.53 c-0.605,1.881-1.478,3.674-2.632,5.304c-0.291,0.411-0.563,0.759-0.801,1.03V38.8c0,1.223,0.691,2.342,1.785,2.888l8.467,4.233 c0.508,0.254,0.967,0.575,1.39,0.932c5.71-4.762,9.399-11.882,9.536-19.9C53.246,12.32,41.587,0.254,26.953,0.004z"/> </g></symbol><symbol id="settings" viewBox="0 0 478.703 478.703"><title>settings</title><path d="M454.2,189.101l-33.6-5.7c-3.5-11.3-8-22.2-13.5-32.6l19.8-27.7c8.4-11.8,7.1-27.9-3.2-38.1l-29.8-29.8 c-5.6-5.6-13-8.7-20.9-8.7c-6.2,0-12.1,1.9-17.1,5.5l-27.8,19.8c-10.8-5.7-22.1-10.4-33.8-13.9l-5.6-33.2 c-2.4-14.3-14.7-24.7-29.2-24.7h-42.1c-14.5,0-26.8,10.4-29.2,24.7l-5.8,34c-11.2,3.5-22.1,8.1-32.5,13.7l-27.5-19.8 c-5-3.6-11-5.5-17.2-5.5c-7.9,0-15.4,3.1-20.9,8.7l-29.9,29.8c-10.2,10.2-11.6,26.3-3.2,38.1l20,28.1 c-5.5,10.5-9.9,21.4-13.3,32.7l-33.2,5.6c-14.3,2.4-24.7,14.7-24.7,29.2v42.1c0,14.5,10.4,26.8,24.7,29.2l34,5.8 c3.5,11.2,8.1,22.1,13.7,32.5l-19.7,27.4c-8.4,11.8-7.1,27.9,3.2,38.1l29.8,29.8c5.6,5.6,13,8.7,20.9,8.7c6.2,0,12.1-1.9,17.1-5.5 l28.1-20c10.1,5.3,20.7,9.6,31.6,13l5.6,33.6c2.4,14.3,14.7,24.7,29.2,24.7h42.2c14.5,0,26.8-10.4,29.2-24.7l5.7-33.6 c11.3-3.5,22.2-8,32.6-13.5l27.7,19.8c5,3.6,11,5.5,17.2,5.5l0,0c7.9,0,15.3-3.1,20.9-8.7l29.8-29.8c10.2-10.2,11.6-26.3,3.2-38.1 l-19.8-27.8c5.5-10.5,10.1-21.4,13.5-32.6l33.6-5.6c14.3-2.4,24.7-14.7,24.7-29.2v-42.1 C478.9,203.801,468.5,191.501,454.2,189.101z M451.9,260.401c0,1.3-0.9,2.4-2.2,2.6l-42,7c-5.3,0.9-9.5,4.8-10.8,9.9 c-3.8,14.7-9.6,28.8-17.4,41.9c-2.7,4.6-2.5,10.3,0.6,14.7l24.7,34.8c0.7,1,0.6,2.5-0.3,3.4l-29.8,29.8c-0.7,0.7-1.4,0.8-1.9,0.8 c-0.6,0-1.1-0.2-1.5-0.5l-34.7-24.7c-4.3-3.1-10.1-3.3-14.7-0.6c-13.1,7.8-27.2,13.6-41.9,17.4c-5.2,1.3-9.1,5.6-9.9,10.8l-7.1,42 c-0.2,1.3-1.3,2.2-2.6,2.2h-42.1c-1.3,0-2.4-0.9-2.6-2.2l-7-42c-0.9-5.3-4.8-9.5-9.9-10.8c-14.3-3.7-28.1-9.4-41-16.8 c-2.1-1.2-4.5-1.8-6.8-1.8c-2.7,0-5.5,0.8-7.8,2.5l-35,24.9c-0.5,0.3-1,0.5-1.5,0.5c-0.4,0-1.2-0.1-1.9-0.8l-29.8-29.8 c-0.9-0.9-1-2.3-0.3-3.4l24.6-34.5c3.1-4.4,3.3-10.2,0.6-14.8c-7.8-13-13.8-27.1-17.6-41.8c-1.4-5.1-5.6-9-10.8-9.9l-42.3-7.2 c-1.3-0.2-2.2-1.3-2.2-2.6v-42.1c0-1.3,0.9-2.4,2.2-2.6l41.7-7c5.3-0.9,9.6-4.8,10.9-10c3.7-14.7,9.4-28.9,17.1-42 c2.7-4.6,2.4-10.3-0.7-14.6l-24.9-35c-0.7-1-0.6-2.5,0.3-3.4l29.8-29.8c0.7-0.7,1.4-0.8,1.9-0.8c0.6,0,1.1,0.2,1.5,0.5l34.5,24.6 c4.4,3.1,10.2,3.3,14.8,0.6c13-7.8,27.1-13.8,41.8-17.6c5.1-1.4,9-5.6,9.9-10.8l7.2-42.3c0.2-1.3,1.3-2.2,2.6-2.2h42.1 c1.3,0,2.4,0.9,2.6,2.2l7,41.7c0.9,5.3,4.8,9.6,10,10.9c15.1,3.8,29.5,9.7,42.9,17.6c4.6,2.7,10.3,2.5,14.7-0.6l34.5-24.8 c0.5-0.3,1-0.5,1.5-0.5c0.4,0,1.2,0.1,1.9,0.8l29.8,29.8c0.9,0.9,1,2.3,0.3,3.4l-24.7,34.7c-3.1,4.3-3.3,10.1-0.6,14.7 c7.8,13.1,13.6,27.2,17.4,41.9c1.3,5.2,5.6,9.1,10.8,9.9l42,7.1c1.3,0.2,2.2,1.3,2.2,2.6v42.1H451.9z"/><path d="M239.4,136.001c-57,0-103.3,46.3-103.3,103.3s46.3,103.3,103.3,103.3s103.3-46.3,103.3-103.3S296.4,136.001,239.4,136.001 z M239.4,315.601c-42.1,0-76.3-34.2-76.3-76.3s34.2-76.3,76.3-76.3s76.3,34.2,76.3,76.3S281.5,315.601,239.4,315.601z"/></symbol><symbol id="multimedia" viewBox="0 0 33 33"><title>multimedia</title><path d="M7.282,32.706c-0.081,0-0.163-0.02-0.237-0.06c-0.162-0.087-0.263-0.257-0.263-0.44v-7.124C2.405,22.806,0,18.821,0,13.828 C0,6.112,7.093,0.294,16.5,0.294S33,6.112,33,13.828c0,7.715-7.093,13.533-16.5,13.533c-0.309,0-0.612-0.017-0.916-0.033 l-0.02-0.001l-8.007,5.296C7.474,32.678,7.378,32.706,7.282,32.706z M16.5,1.294C7.664,1.294,1,6.683,1,13.828 c0,3.323,1.128,7.842,6.503,10.499c0.17,0.084,0.278,0.258,0.278,0.448v6.501l7.369-4.874c0.09-0.06,0.199-0.095,0.302-0.082 l0.186,0.01c0.286,0.016,0.571,0.031,0.861,0.031c8.836,0,15.5-5.388,15.5-12.533S25.336,1.294,16.5,1.294z"/><circle cx="23.909" cy="13.996" r="1.013"/><circle cx="16.5" cy="13.996" r="1.013"/><circle cx="9.091" cy="13.996" r="1.013"/></symbol><symbol id="right-arrow" viewBox="0 0 49.656 49.656"><title>right-arrow</title><polygon style="fill:#00AD97;" points="14.535,48.242 11.707,45.414 32.292,24.828 11.707,4.242 14.535,1.414 37.949,24.828 "/><path style="fill:#00AD97;" d="M14.535,49.656l-4.242-4.242l20.585-20.586L10.293,4.242L14.535,0l24.829,24.828L14.535,49.656z M13.121,45.414l1.414,1.414l22-22l-22-22l-1.414,1.414l20.585,20.586L13.121,45.414z"/></symbol><symbol id="left-arrow" viewBox="0 0 49.656 49.656"><title>left-arrow</title><polygon style="fill:#00AD97;" points="35.121,1.414 37.949,4.242 17.364,24.828 37.949,45.414 35.121,48.242 11.707,24.828 "/><path style="fill:#00AD97;" d="M35.122,49.656L10.292,24.828L35.121,0l4.242,4.242L18.778,24.828l20.586,20.586L35.122,49.656z M13.121,24.828l22.001,22l1.414-1.414L15.95,24.828L36.535,4.242l-1.414-1.414L13.121,24.828z"/></symbol><symbol id="reddit" viewBox="0 0 514.24 514.24"><title>reddit</title><g> <polygon style="fill:#FAFAFA;" points="192,289.121 176,289.089 176,289.121 "/> <polygon style="fill:#FAFAFA;" points="336,289.121 352,289.121 336,289.089 "/> </g><path style="fill:#FF9800;" d="M514.24,241.121c0-35.296-28.704-64-64-64c-14.112,0-27.52,4.608-38.464,12.96 c-35.712-24.8-82.496-39.584-132.256-43.328l26.848-62.976l78.112,18.24c2.496,24.16,22.72,43.104,47.52,43.104 c26.464,0,48-21.536,48-48s-21.536-48-48-48c-16.768,0-31.52,8.672-40.096,21.76l-91.296-21.344 c-7.744-1.76-15.328,2.176-18.4,9.312l-37.12,87.04c-53.728,1.856-104.928,16.992-143.584,43.36 C90.976,181.441,77.92,177.121,64,177.121c-35.296,0-64,28.704-64,64c0,23.392,12.768,44.544,32.352,55.392 c-0.256,2.816-0.352,5.696-0.352,8.608c0,88.224,100.48,160,224,160c123.488,0,224-71.776,224-160c0-2.496-0.096-4.96-0.256-7.424 C500.608,287.073,514.24,265.409,514.24,241.121z"/><g> <circle style="fill:#FAFAFA;" cx="432" cy="97.121" r="16"/> <circle style="fill:#FAFAFA;" cx="176" cy="289.121" r="32"/> <path style="fill:#FAFAFA;" d="M329.888,395.265c-22.08,15.968-48,23.968-73.888,23.968s-51.808-8-73.888-23.968 c-7.168-5.184-8.768-15.2-3.584-22.336s15.2-8.736,22.336-3.584c32.992,23.84,77.28,23.904,110.272,0 c7.136-5.152,17.12-3.616,22.336,3.584C338.656,380.097,337.024,390.081,329.888,395.265z"/> <circle style="fill:#FAFAFA;" cx="336" cy="289.121" r="32"/> </g></symbol><symbol id="view" viewBox="0 0 59.2 59.2"><title>view</title><path d="M51.062,21.561c-11.889-11.889-31.232-11.889-43.121,0L0,29.501l8.138,8.138c5.944,5.944,13.752,8.917,21.561,8.917 s15.616-2.972,21.561-8.917l7.941-7.941L51.062,21.561z M49.845,36.225c-11.109,11.108-29.184,11.108-40.293,0l-6.724-6.724 l6.527-6.527c11.109-11.108,29.184-11.108,40.293,0l6.724,6.724L49.845,36.225z"/><path d="M28.572,21.57c-3.86,0-7,3.14-7,7c0,0.552,0.448,1,1,1s1-0.448,1-1c0-2.757,2.243-5,5-5c0.552,0,1-0.448,1-1 S29.125,21.57,28.572,21.57z"/><path d="M29.572,16.57c-7.168,0-13,5.832-13,13s5.832,13,13,13s13-5.832,13-13S36.741,16.57,29.572,16.57z M29.572,40.57 c-6.065,0-11-4.935-11-11s4.935-11,11-11s11,4.935,11,11S35.638,40.57,29.572,40.57z"/></symbol><symbol id="share" viewBox="0 0 58.995 58.995"><title>share</title><path d="M39.927,41.929c-0.524,0.524-0.975,1.1-1.365,1.709l-17.28-10.489c0.457-1.144,0.716-2.388,0.716-3.693 c0-1.305-0.259-2.549-0.715-3.693l17.284-10.409C40.342,18.142,43.454,20,46.998,20c5.514,0,10-4.486,10-10s-4.486-10-10-10 s-10,4.486-10,10c0,1.256,0.243,2.454,0.667,3.562L20.358,23.985c-1.788-2.724-4.866-4.529-8.361-4.529c-5.514,0-10,4.486-10,10 s4.486,10,10,10c3.495,0,6.572-1.805,8.36-4.529L37.661,45.43c-0.43,1.126-0.664,2.329-0.664,3.57c0,2.671,1.04,5.183,2.929,7.071 c1.949,1.949,4.51,2.924,7.071,2.924s5.122-0.975,7.071-2.924c1.889-1.889,2.929-4.4,2.929-7.071s-1.04-5.183-2.929-7.071 C50.169,38.029,43.826,38.029,39.927,41.929z M46.998,2c4.411,0,8,3.589,8,8s-3.589,8-8,8s-8-3.589-8-8S42.586,2,46.998,2z M11.998,37.456c-4.411,0-8-3.589-8-8s3.589-8,8-8s8,3.589,8,8S16.409,37.456,11.998,37.456z M52.654,54.657 c-3.119,3.119-8.194,3.119-11.313,0c-1.511-1.511-2.343-3.521-2.343-5.657s0.832-4.146,2.343-5.657 c1.56-1.56,3.608-2.339,5.657-2.339s4.097,0.779,5.657,2.339c1.511,1.511,2.343,3.521,2.343,5.657S54.166,53.146,52.654,54.657z"/></symbol><symbol id="like" viewBox="0 0 51.997 51.997"><title>like</title><path d="M51.911,16.242C51.152,7.888,45.239,1.827,37.839,1.827c-4.93,0-9.444,2.653-11.984,6.905 c-2.517-4.307-6.846-6.906-11.697-6.906c-7.399,0-13.313,6.061-14.071,14.415c-0.06,0.369-0.306,2.311,0.442,5.478 c1.078,4.568,3.568,8.723,7.199,12.013l18.115,16.439l18.426-16.438c3.631-3.291,6.121-7.445,7.199-12.014 C52.216,18.553,51.97,16.611,51.911,16.242z M49.521,21.261c-0.984,4.172-3.265,7.973-6.59,10.985L25.855,47.481L9.072,32.25 c-3.331-3.018-5.611-6.818-6.596-10.99c-0.708-2.997-0.417-4.69-0.416-4.701l0.015-0.101C2.725,9.139,7.806,3.826,14.158,3.826 c4.687,0,8.813,2.88,10.771,7.515l0.921,2.183l0.921-2.183c1.927-4.564,6.271-7.514,11.069-7.514 c6.351,0,11.433,5.313,12.096,12.727C49.938,16.57,50.229,18.264,49.521,21.261z"/></symbol><symbol id="time" viewBox="0 0 60 60"><title>time</title><path d="M30,0C13.458,0,0,13.458,0,30s13.458,30,30,30s30-13.458,30-30S46.542,0,30,0z M30,58C14.561,58,2,45.439,2,30 S14.561,2,30,2s28,12.561,28,28S45.439,58,30,58z"/><path d="M30,6c-0.552,0-1,0.447-1,1v23H14c-0.552,0-1,0.447-1,1s0.448,1,1,1h16c0.552,0,1-0.447,1-1V7C31,6.447,30.552,6,30,6z"/></symbol><symbol id="folder" viewBox="0 0 60 60"><title>folder</title><path d="M56.98,11.5H28.02V6.52c0-1.665-1.354-3.02-3.02-3.02H3.02C1.354,3.5,0,4.854,0,6.52V20.5v2v30.98 c0,1.665,1.354,3.02,3.02,3.02H56.98c1.665,0,3.02-1.354,3.02-3.02V22.5v-2v-5.98C60,12.854,58.646,11.5,56.98,11.5z M58,53.48 c0,0.563-0.457,1.02-1.02,1.02H3.02C2.457,54.5,2,54.043,2,53.48V22.5h56V53.48z M2,20.5V6.52C2,5.957,2.457,5.5,3.02,5.5H25 c0.562,0,1.02,0.457,1.02,1.02v6.98H56.98c0.563,0,1.02,0.457,1.02,1.02v5.98H2z"/></symbol><symbol id="music-player" viewBox="0 0 55 55"><title>music-player</title><path d="M52.66,0.249c-0.216-0.189-0.501-0.275-0.789-0.241l-31,4.011C20.373,4.084,20,4.507,20,5.01v6.017v4.212v25.384 C18.174,38.428,15.273,37,12,37c-5.514,0-10,4.037-10,9s4.486,9,10,9s10-4.037,10-9c0-0.232-0.019-0.46-0.039-0.687 C21.974,45.248,22,45.189,22,45.121V16.118l29-3.753v18.257C49.174,28.428,46.273,27,43,27c-5.514,0-10,4.037-10,9s4.486,9,10,9 c5.464,0,9.913-3.966,9.993-8.867c0-0.013,0.007-0.024,0.007-0.037V11.227V7.016V1C53,0.712,52.876,0.438,52.66,0.249z"/></symbol><symbol id="android" viewBox="0 0 413.137 413.137"><title>android</title><path style="fill:#AAC148;" d="M311.358,136.395H101.779c-4.662,0-8.441,3.779-8.441,8.441v175.749 c0,4.662,3.779,8.441,8.441,8.441h37.363v59.228c0,13.742,11.14,24.883,24.883,24.883l0,0c13.742,0,24.883-11.14,24.883-24.883 v-59.228h34.803v59.228c0,13.742,11.14,24.883,24.883,24.883l0,0c13.742,0,24.883-11.14,24.883-24.883v-59.228h37.882 c4.662,0,8.441-3.779,8.441-8.441V144.836C319.799,140.174,316.02,136.395,311.358,136.395z"/><path style="fill:#AAC148;" d="M57.856,136.354L57.856,136.354c-13.742,0-24.883,11.14-24.883,24.883v101.065 c0,13.742,11.14,24.883,24.883,24.883l0,0c13.742,0,24.883-11.14,24.883-24.883V161.237 C82.738,147.495,71.598,136.354,57.856,136.354z"/><path style="fill:#AAC148;" d="M355.281,136.354L355.281,136.354c-13.742,0-24.883,11.14-24.883,24.883v101.065 c0,13.742,11.14,24.883,24.883,24.883l0,0c13.742,0,24.883-11.14,24.883-24.883V161.237 C380.164,147.495,369.024,136.354,355.281,136.354z"/><path style="fill:#AAC148;" d="M103.475,124.069h205.692c5.366,0,9.368-4.943,8.266-10.195 c-6.804-32.428-27.45-59.756-55.465-75.543l17.584-31.727c1.19-2.148,0.414-4.855-1.734-6.045 c-2.153-1.193-4.856-0.414-6.046,1.734l-17.717,31.966c-14.511-6.734-30.683-10.495-47.734-10.495 c-17.052,0-33.224,3.761-47.735,10.495L140.869,2.292c-1.191-2.149-3.898-2.924-6.045-1.734c-2.148,1.19-2.924,3.897-1.734,6.045 l17.584,31.727c-28.015,15.788-48.661,43.115-55.465,75.544C94.106,119.126,98.108,124.069,103.475,124.069z M267.697,76.786 c0,5.282-4.282,9.565-9.565,9.565c-5.282,0-9.565-4.282-9.565-9.565c0-5.282,4.282-9.565,9.565-9.565 C263.415,67.221,267.697,71.504,267.697,76.786z M154.508,67.221c5.282,0,9.565,4.282,9.565,9.565c0,5.282-4.282,9.565-9.565,9.565 c-5.282,0-9.565-4.282-9.565-9.565C144.943,71.504,149.225,67.221,154.508,67.221z"/></symbol><symbol id="facebook" viewBox="0 0 408.788 408.788"><title>facebook</title><path style="fill:#475993;" d="M353.701,0H55.087C24.665,0,0.002,24.662,0.002,55.085v298.616c0,30.423,24.662,55.085,55.085,55.085 h147.275l0.251-146.078h-37.951c-4.932,0-8.935-3.988-8.954-8.92l-0.182-47.087c-0.019-4.959,3.996-8.989,8.955-8.989h37.882 v-45.498c0-52.8,32.247-81.55,79.348-81.55h38.65c4.945,0,8.955,4.009,8.955,8.955v39.704c0,4.944-4.007,8.952-8.95,8.955 l-23.719,0.011c-25.615,0-30.575,12.172-30.575,30.035v39.389h56.285c5.363,0,9.524,4.683,8.892,10.009l-5.581,47.087 c-0.534,4.506-4.355,7.901-8.892,7.901h-50.453l-0.251,146.078h87.631c30.422,0,55.084-24.662,55.084-55.084V55.085 C408.786,24.662,384.124,0,353.701,0z"/></symbol><symbol id="linkedin" viewBox="0 0 382 382"><title>linkedin</title><path style="fill:#0077B7;" d="M347.445,0H34.555C15.471,0,0,15.471,0,34.555v312.889C0,366.529,15.471,382,34.555,382h312.889 C366.529,382,382,366.529,382,347.444V34.555C382,15.471,366.529,0,347.445,0z M118.207,329.844c0,5.554-4.502,10.056-10.056,10.056 H65.345c-5.554,0-10.056-4.502-10.056-10.056V150.403c0-5.554,4.502-10.056,10.056-10.056h42.806 c5.554,0,10.056,4.502,10.056,10.056V329.844z M86.748,123.432c-22.459,0-40.666-18.207-40.666-40.666S64.289,42.1,86.748,42.1 s40.666,18.207,40.666,40.666S109.208,123.432,86.748,123.432z M341.91,330.654c0,5.106-4.14,9.246-9.246,9.246H286.73 c-5.106,0-9.246-4.14-9.246-9.246v-84.168c0-12.556,3.683-55.021-32.813-55.021c-28.309,0-34.051,29.066-35.204,42.11v97.079 c0,5.106-4.139,9.246-9.246,9.246h-44.426c-5.106,0-9.246-4.14-9.246-9.246V149.593c0-5.106,4.14-9.246,9.246-9.246h44.426 c5.106,0,9.246,4.14,9.246,9.246v15.655c10.497-15.753,26.097-27.912,59.312-27.912c73.552,0,73.131,68.716,73.131,106.472 L341.91,330.654L341.91,330.654z"/></symbol><symbol id="photo-camera" viewBox="0 0 100 100"><title>photo-camera</title><path d="M50,40c-8.285,0-15,6.718-15,15c0,8.285,6.715,15,15,15c8.283,0,15-6.715,15-15 C65,46.718,58.283,40,50,40z M90,25H78c-1.65,0-3.428-1.28-3.949-2.846l-3.102-9.309C70.426,11.28,68.65,10,67,10H33 c-1.65,0-3.428,1.28-3.949,2.846l-3.102,9.309C25.426,23.72,23.65,25,22,25H10C4.5,25,0,29.5,0,35v45c0,5.5,4.5,10,10,10h80 c5.5,0,10-4.5,10-10V35C100,29.5,95.5,25,90,25z M50,80c-13.807,0-25-11.193-25-25c0-13.806,11.193-25,25-25 c13.805,0,25,11.194,25,25C75,68.807,63.805,80,50,80z M86.5,41.993c-1.932,0-3.5-1.566-3.5-3.5c0-1.932,1.568-3.5,3.5-3.5 c1.934,0,3.5,1.568,3.5,3.5C90,40.427,88.433,41.993,86.5,41.993z"/></symbol><symbol id="overflowing" viewBox="0 0 511.987 511.987"><title>overflowing</title><g> <rect x="113.804" y="404.819" style="fill:#FFC107;" width="202.144" height="43.168"/> <rect x="392.385" y="2.202" transform="matrix(-0.9853 0.171 -0.171 -0.9853 839.5015 134.2464)" style="fill:#FFC107;" width="43.169" height="202.15"/> <polygon style="fill:#FFC107;" points="119.564,326.547 320.844,345.107 316.876,388.083 115.596,369.555 "/> <rect x="209.301" y="182.301" transform="matrix(-0.2596 0.9657 -0.9657 -0.2596 564.4791 133.9671)" style="fill:#FFC107;" width="43.167" height="202.141"/> <polygon style="fill:#FFC107;" points="185.484,136.691 359.596,239.379 337.676,276.563 163.532,173.875 "/> <polygon style="fill:#FFC107;" points="288.396,42.131 402.284,209.139 366.636,233.459 252.716,66.451 "/> </g><polygon style="fill:#B0BEC5;" points="379.468,511.987 59.468,511.987 59.468,319.987 91.468,319.987 91.468,479.987 347.468,479.987 347.468,319.987 379.468,319.987 "/></symbol></svg>